<?xml version="1.0" encoding="utf-8" standalone="no"?>
<!DOCTYPE svg PUBLIC "-//W3C//DTD SVG 1.1//EN"
  "http://www.w3.org/Graphics/SVG/1.1/DTD/svg11.dtd">
<svg xmlns:xlink="http://www.w3.org/1999/xlink" width="568.855312pt" height="424.8pt" viewBox="0 0 568.855312 424.8" xmlns="http://www.w3.org/2000/svg" version="1.1">
 <metadata>
  <rdf:RDF xmlns:dc="http://purl.org/dc/elements/1.1/" xmlns:cc="http://creativecommons.org/ns#" xmlns:rdf="http://www.w3.org/1999/02/22-rdf-syntax-ns#">
   <cc:Work>
    <dc:type rdf:resource="http://purl.org/dc/dcmitype/StillImage"/>
    <dc:date>2026-03-24T18:05:01.599555</dc:date>
    <dc:format>image/svg+xml</dc:format>
    <dc:creator>
     <cc:Agent>
      <dc:title>Matplotlib v3.10.8, https://matplotlib.org/</dc:title>
     </cc:Agent>
    </dc:creator>
   </cc:Work>
  </rdf:RDF>
 </metadata>
 <defs>
  <style type="text/css">*{stroke-linejoin: round; stroke-linecap: butt}</style>
 </defs>
 <g id="figure_1">
  <g id="patch_1">
   <path d="M 0 424.8 
L 568.855312 424.8 
L 568.855312 0 
L 0 0 
z
" style="fill: #ffffff"/>
  </g>
  <g id="axes_1">
   <g id="patch_2">
    <path d="M 37.745313 391.809375 
L 554.705312 391.809375 
L 554.705312 21.789375 
L 37.745313 21.789375 
z
" style="fill: #ffffff"/>
   </g>
   <g id="matplotlib.axis_1">
    <g id="xtick_1">
     <g id="line2d_1">
      <path d="M 37.745313 391.809375 
L 37.745313 21.789375 
" clip-path="url(#pc3eeb84c42)" style="fill: none; stroke: #cccccc; stroke-opacity: 0.3; stroke-width: 0.8; stroke-linecap: round"/>
     </g>
     <g id="line2d_2"/>
     <g id="text_1">
      <!-- 0.0 -->
      <g style="fill: #262626" transform="translate(30.795313 402.467188) scale(0.1 -0.1)">
       <defs>
        <path id="ArialMT-30" d="M 266 2259 
Q 266 3072 433 3567 
Q 600 4063 929 4331 
Q 1259 4600 1759 4600 
Q 2128 4600 2406 4451 
Q 2684 4303 2865 4023 
Q 3047 3744 3150 3342 
Q 3253 2941 3253 2259 
Q 3253 1453 3087 958 
Q 2922 463 2592 192 
Q 2263 -78 1759 -78 
Q 1097 -78 719 397 
Q 266 969 266 2259 
z
M 844 2259 
Q 844 1131 1108 757 
Q 1372 384 1759 384 
Q 2147 384 2411 759 
Q 2675 1134 2675 2259 
Q 2675 3391 2411 3762 
Q 2147 4134 1753 4134 
Q 1366 4134 1134 3806 
Q 844 3388 844 2259 
z
" transform="scale(0.015625)"/>
        <path id="ArialMT-2e" d="M 581 0 
L 581 641 
L 1222 641 
L 1222 0 
L 581 0 
z
" transform="scale(0.015625)"/>
       </defs>
       <use xlink:href="#ArialMT-30"/>
       <use xlink:href="#ArialMT-2e" transform="translate(55.615234 0)"/>
       <use xlink:href="#ArialMT-30" transform="translate(83.398438 0)"/>
      </g>
     </g>
    </g>
    <g id="xtick_2">
     <g id="line2d_3">
      <path d="M 141.137313 391.809375 
L 141.137313 21.789375 
" clip-path="url(#pc3eeb84c42)" style="fill: none; stroke: #cccccc; stroke-opacity: 0.3; stroke-width: 0.8; stroke-linecap: round"/>
     </g>
     <g id="line2d_4"/>
     <g id="text_2">
      <!-- 0.2 -->
      <g style="fill: #262626" transform="translate(134.187313 402.467188) scale(0.1 -0.1)">
       <defs>
        <path id="ArialMT-32" d="M 3222 541 
L 3222 0 
L 194 0 
Q 188 203 259 391 
Q 375 700 629 1000 
Q 884 1300 1366 1694 
Q 2113 2306 2375 2664 
Q 2638 3022 2638 3341 
Q 2638 3675 2398 3904 
Q 2159 4134 1775 4134 
Q 1369 4134 1125 3890 
Q 881 3647 878 3216 
L 300 3275 
Q 359 3922 746 4261 
Q 1134 4600 1788 4600 
Q 2447 4600 2831 4234 
Q 3216 3869 3216 3328 
Q 3216 3053 3103 2787 
Q 2991 2522 2730 2228 
Q 2469 1934 1863 1422 
Q 1356 997 1212 845 
Q 1069 694 975 541 
L 3222 541 
z
" transform="scale(0.015625)"/>
       </defs>
       <use xlink:href="#ArialMT-30"/>
       <use xlink:href="#ArialMT-2e" transform="translate(55.615234 0)"/>
       <use xlink:href="#ArialMT-32" transform="translate(83.398438 0)"/>
      </g>
     </g>
    </g>
    <g id="xtick_3">
     <g id="line2d_5">
      <path d="M 244.529313 391.809375 
L 244.529313 21.789375 
" clip-path="url(#pc3eeb84c42)" style="fill: none; stroke: #cccccc; stroke-opacity: 0.3; stroke-width: 0.8; stroke-linecap: round"/>
     </g>
     <g id="line2d_6"/>
     <g id="text_3">
      <!-- 0.4 -->
      <g style="fill: #262626" transform="translate(237.579313 402.467188) scale(0.1 -0.1)">
       <defs>
        <path id="ArialMT-34" d="M 2069 0 
L 2069 1097 
L 81 1097 
L 81 1613 
L 2172 4581 
L 2631 4581 
L 2631 1613 
L 3250 1613 
L 3250 1097 
L 2631 1097 
L 2631 0 
L 2069 0 
z
M 2069 1613 
L 2069 3678 
L 634 1613 
L 2069 1613 
z
" transform="scale(0.015625)"/>
       </defs>
       <use xlink:href="#ArialMT-30"/>
       <use xlink:href="#ArialMT-2e" transform="translate(55.615234 0)"/>
       <use xlink:href="#ArialMT-34" transform="translate(83.398438 0)"/>
      </g>
     </g>
    </g>
    <g id="xtick_4">
     <g id="line2d_7">
      <path d="M 347.921313 391.809375 
L 347.921313 21.789375 
" clip-path="url(#pc3eeb84c42)" style="fill: none; stroke: #cccccc; stroke-opacity: 0.3; stroke-width: 0.8; stroke-linecap: round"/>
     </g>
     <g id="line2d_8"/>
     <g id="text_4">
      <!-- 0.6 -->
      <g style="fill: #262626" transform="translate(340.971313 402.467188) scale(0.1 -0.1)">
       <defs>
        <path id="ArialMT-36" d="M 3184 3459 
L 2625 3416 
Q 2550 3747 2413 3897 
Q 2184 4138 1850 4138 
Q 1581 4138 1378 3988 
Q 1113 3794 959 3422 
Q 806 3050 800 2363 
Q 1003 2672 1297 2822 
Q 1591 2972 1913 2972 
Q 2475 2972 2870 2558 
Q 3266 2144 3266 1488 
Q 3266 1056 3080 686 
Q 2894 316 2569 119 
Q 2244 -78 1831 -78 
Q 1128 -78 684 439 
Q 241 956 241 2144 
Q 241 3472 731 4075 
Q 1159 4600 1884 4600 
Q 2425 4600 2770 4297 
Q 3116 3994 3184 3459 
z
M 888 1484 
Q 888 1194 1011 928 
Q 1134 663 1356 523 
Q 1578 384 1822 384 
Q 2178 384 2434 671 
Q 2691 959 2691 1453 
Q 2691 1928 2437 2201 
Q 2184 2475 1800 2475 
Q 1419 2475 1153 2201 
Q 888 1928 888 1484 
z
" transform="scale(0.015625)"/>
       </defs>
       <use xlink:href="#ArialMT-30"/>
       <use xlink:href="#ArialMT-2e" transform="translate(55.615234 0)"/>
       <use xlink:href="#ArialMT-36" transform="translate(83.398438 0)"/>
      </g>
     </g>
    </g>
    <g id="xtick_5">
     <g id="line2d_9">
      <path d="M 451.313313 391.809375 
L 451.313313 21.789375 
" clip-path="url(#pc3eeb84c42)" style="fill: none; stroke: #cccccc; stroke-opacity: 0.3; stroke-width: 0.8; stroke-linecap: round"/>
     </g>
     <g id="line2d_10"/>
     <g id="text_5">
      <!-- 0.8 -->
      <g style="fill: #262626" transform="translate(444.363313 402.467188) scale(0.1 -0.1)">
       <defs>
        <path id="ArialMT-38" d="M 1131 2484 
Q 781 2613 612 2850 
Q 444 3088 444 3419 
Q 444 3919 803 4259 
Q 1163 4600 1759 4600 
Q 2359 4600 2725 4251 
Q 3091 3903 3091 3403 
Q 3091 3084 2923 2848 
Q 2756 2613 2416 2484 
Q 2838 2347 3058 2040 
Q 3278 1734 3278 1309 
Q 3278 722 2862 322 
Q 2447 -78 1769 -78 
Q 1091 -78 675 323 
Q 259 725 259 1325 
Q 259 1772 486 2073 
Q 713 2375 1131 2484 
z
M 1019 3438 
Q 1019 3113 1228 2906 
Q 1438 2700 1772 2700 
Q 2097 2700 2305 2904 
Q 2513 3109 2513 3406 
Q 2513 3716 2298 3927 
Q 2084 4138 1766 4138 
Q 1444 4138 1231 3931 
Q 1019 3725 1019 3438 
z
M 838 1322 
Q 838 1081 952 856 
Q 1066 631 1291 507 
Q 1516 384 1775 384 
Q 2178 384 2440 643 
Q 2703 903 2703 1303 
Q 2703 1709 2433 1975 
Q 2163 2241 1756 2241 
Q 1359 2241 1098 1978 
Q 838 1716 838 1322 
z
" transform="scale(0.015625)"/>
       </defs>
       <use xlink:href="#ArialMT-30"/>
       <use xlink:href="#ArialMT-2e" transform="translate(55.615234 0)"/>
       <use xlink:href="#ArialMT-38" transform="translate(83.398438 0)"/>
      </g>
     </g>
    </g>
    <g id="xtick_6">
     <g id="line2d_11">
      <path d="M 554.705312 391.809375 
L 554.705312 21.789375 
" clip-path="url(#pc3eeb84c42)" style="fill: none; stroke: #cccccc; stroke-opacity: 0.3; stroke-width: 0.8; stroke-linecap: round"/>
     </g>
     <g id="line2d_12"/>
     <g id="text_6">
      <!-- 1.0 -->
      <g style="fill: #262626" transform="translate(547.755312 402.467188) scale(0.1 -0.1)">
       <defs>
        <path id="ArialMT-31" d="M 2384 0 
L 1822 0 
L 1822 3584 
Q 1619 3391 1289 3197 
Q 959 3003 697 2906 
L 697 3450 
Q 1169 3672 1522 3987 
Q 1875 4303 2022 4600 
L 2384 4600 
L 2384 0 
z
" transform="scale(0.015625)"/>
       </defs>
       <use xlink:href="#ArialMT-31"/>
       <use xlink:href="#ArialMT-2e" transform="translate(55.615234 0)"/>
       <use xlink:href="#ArialMT-30" transform="translate(83.398438 0)"/>
      </g>
     </g>
    </g>
    <g id="text_7">
     <!-- Recall -->
     <g style="fill: #262626" transform="translate(282.331563 415.6125) scale(0.1 -0.1)">
      <defs>
       <path id="ArialMT-52" d="M 503 0 
L 503 4581 
L 2534 4581 
Q 3147 4581 3465 4457 
Q 3784 4334 3975 4021 
Q 4166 3709 4166 3331 
Q 4166 2844 3850 2509 
Q 3534 2175 2875 2084 
Q 3116 1969 3241 1856 
Q 3506 1613 3744 1247 
L 4541 0 
L 3778 0 
L 3172 953 
Q 2906 1366 2734 1584 
Q 2563 1803 2427 1890 
Q 2291 1978 2150 2013 
Q 2047 2034 1813 2034 
L 1109 2034 
L 1109 0 
L 503 0 
z
M 1109 2559 
L 2413 2559 
Q 2828 2559 3062 2645 
Q 3297 2731 3419 2920 
Q 3541 3109 3541 3331 
Q 3541 3656 3305 3865 
Q 3069 4075 2559 4075 
L 1109 4075 
L 1109 2559 
z
" transform="scale(0.015625)"/>
       <path id="ArialMT-65" d="M 2694 1069 
L 3275 997 
Q 3138 488 2766 206 
Q 2394 -75 1816 -75 
Q 1088 -75 661 373 
Q 234 822 234 1631 
Q 234 2469 665 2931 
Q 1097 3394 1784 3394 
Q 2450 3394 2872 2941 
Q 3294 2488 3294 1666 
Q 3294 1616 3291 1516 
L 816 1516 
Q 847 969 1125 678 
Q 1403 388 1819 388 
Q 2128 388 2347 550 
Q 2566 713 2694 1069 
z
M 847 1978 
L 2700 1978 
Q 2663 2397 2488 2606 
Q 2219 2931 1791 2931 
Q 1403 2931 1139 2672 
Q 875 2413 847 1978 
z
" transform="scale(0.015625)"/>
       <path id="ArialMT-63" d="M 2588 1216 
L 3141 1144 
Q 3050 572 2676 248 
Q 2303 -75 1759 -75 
Q 1078 -75 664 370 
Q 250 816 250 1647 
Q 250 2184 428 2587 
Q 606 2991 970 3192 
Q 1334 3394 1763 3394 
Q 2303 3394 2647 3120 
Q 2991 2847 3088 2344 
L 2541 2259 
Q 2463 2594 2264 2762 
Q 2066 2931 1784 2931 
Q 1359 2931 1093 2626 
Q 828 2322 828 1663 
Q 828 994 1084 691 
Q 1341 388 1753 388 
Q 2084 388 2306 591 
Q 2528 794 2588 1216 
z
" transform="scale(0.015625)"/>
       <path id="ArialMT-61" d="M 2588 409 
Q 2275 144 1986 34 
Q 1697 -75 1366 -75 
Q 819 -75 525 192 
Q 231 459 231 875 
Q 231 1119 342 1320 
Q 453 1522 633 1644 
Q 813 1766 1038 1828 
Q 1203 1872 1538 1913 
Q 2219 1994 2541 2106 
Q 2544 2222 2544 2253 
Q 2544 2597 2384 2738 
Q 2169 2928 1744 2928 
Q 1347 2928 1158 2789 
Q 969 2650 878 2297 
L 328 2372 
Q 403 2725 575 2942 
Q 747 3159 1072 3276 
Q 1397 3394 1825 3394 
Q 2250 3394 2515 3294 
Q 2781 3194 2906 3042 
Q 3031 2891 3081 2659 
Q 3109 2516 3109 2141 
L 3109 1391 
Q 3109 606 3145 398 
Q 3181 191 3288 0 
L 2700 0 
Q 2613 175 2588 409 
z
M 2541 1666 
Q 2234 1541 1622 1453 
Q 1275 1403 1131 1340 
Q 988 1278 909 1158 
Q 831 1038 831 891 
Q 831 666 1001 516 
Q 1172 366 1500 366 
Q 1825 366 2078 508 
Q 2331 650 2450 897 
Q 2541 1088 2541 1459 
L 2541 1666 
z
" transform="scale(0.015625)"/>
       <path id="ArialMT-6c" d="M 409 0 
L 409 4581 
L 972 4581 
L 972 0 
L 409 0 
z
" transform="scale(0.015625)"/>
      </defs>
      <use xlink:href="#ArialMT-52"/>
      <use xlink:href="#ArialMT-65" transform="translate(72.216797 0)"/>
      <use xlink:href="#ArialMT-63" transform="translate(127.832031 0)"/>
      <use xlink:href="#ArialMT-61" transform="translate(177.832031 0)"/>
      <use xlink:href="#ArialMT-6c" transform="translate(233.447266 0)"/>
      <use xlink:href="#ArialMT-6c" transform="translate(255.664062 0)"/>
     </g>
    </g>
   </g>
   <g id="matplotlib.axis_2">
    <g id="ytick_1">
     <g id="line2d_13">
      <path d="M 37.745313 391.809375 
L 554.705312 391.809375 
" clip-path="url(#pc3eeb84c42)" style="fill: none; stroke: #cccccc; stroke-opacity: 0.3; stroke-width: 0.8; stroke-linecap: round"/>
     </g>
     <g id="line2d_14"/>
     <g id="text_8">
      <!-- 0.0 -->
      <g style="fill: #262626" transform="translate(20.345313 395.388281) scale(0.1 -0.1)">
       <use xlink:href="#ArialMT-30"/>
       <use xlink:href="#ArialMT-2e" transform="translate(55.615234 0)"/>
       <use xlink:href="#ArialMT-30" transform="translate(83.398438 0)"/>
      </g>
     </g>
    </g>
    <g id="ytick_2">
     <g id="line2d_15">
      <path d="M 37.745313 317.805375 
L 554.705312 317.805375 
" clip-path="url(#pc3eeb84c42)" style="fill: none; stroke: #cccccc; stroke-opacity: 0.3; stroke-width: 0.8; stroke-linecap: round"/>
     </g>
     <g id="line2d_16"/>
     <g id="text_9">
      <!-- 0.2 -->
      <g style="fill: #262626" transform="translate(20.345313 321.384281) scale(0.1 -0.1)">
       <use xlink:href="#ArialMT-30"/>
       <use xlink:href="#ArialMT-2e" transform="translate(55.615234 0)"/>
       <use xlink:href="#ArialMT-32" transform="translate(83.398438 0)"/>
      </g>
     </g>
    </g>
    <g id="ytick_3">
     <g id="line2d_17">
      <path d="M 37.745313 243.801375 
L 554.705312 243.801375 
" clip-path="url(#pc3eeb84c42)" style="fill: none; stroke: #cccccc; stroke-opacity: 0.3; stroke-width: 0.8; stroke-linecap: round"/>
     </g>
     <g id="line2d_18"/>
     <g id="text_10">
      <!-- 0.4 -->
      <g style="fill: #262626" transform="translate(20.345313 247.380281) scale(0.1 -0.1)">
       <use xlink:href="#ArialMT-30"/>
       <use xlink:href="#ArialMT-2e" transform="translate(55.615234 0)"/>
       <use xlink:href="#ArialMT-34" transform="translate(83.398438 0)"/>
      </g>
     </g>
    </g>
    <g id="ytick_4">
     <g id="line2d_19">
      <path d="M 37.745313 169.797375 
L 554.705312 169.797375 
" clip-path="url(#pc3eeb84c42)" style="fill: none; stroke: #cccccc; stroke-opacity: 0.3; stroke-width: 0.8; stroke-linecap: round"/>
     </g>
     <g id="line2d_20"/>
     <g id="text_11">
      <!-- 0.6 -->
      <g style="fill: #262626" transform="translate(20.345313 173.376281) scale(0.1 -0.1)">
       <use xlink:href="#ArialMT-30"/>
       <use xlink:href="#ArialMT-2e" transform="translate(55.615234 0)"/>
       <use xlink:href="#ArialMT-36" transform="translate(83.398438 0)"/>
      </g>
     </g>
    </g>
    <g id="ytick_5">
     <g id="line2d_21">
      <path d="M 37.745313 95.793375 
L 554.705312 95.793375 
" clip-path="url(#pc3eeb84c42)" style="fill: none; stroke: #cccccc; stroke-opacity: 0.3; stroke-width: 0.8; stroke-linecap: round"/>
     </g>
     <g id="line2d_22"/>
     <g id="text_12">
      <!-- 0.8 -->
      <g style="fill: #262626" transform="translate(20.345313 99.372281) scale(0.1 -0.1)">
       <use xlink:href="#ArialMT-30"/>
       <use xlink:href="#ArialMT-2e" transform="translate(55.615234 0)"/>
       <use xlink:href="#ArialMT-38" transform="translate(83.398438 0)"/>
      </g>
     </g>
    </g>
    <g id="ytick_6">
     <g id="line2d_23">
      <path d="M 37.745313 21.789375 
L 554.705312 21.789375 
" clip-path="url(#pc3eeb84c42)" style="fill: none; stroke: #cccccc; stroke-opacity: 0.3; stroke-width: 0.8; stroke-linecap: round"/>
     </g>
     <g id="line2d_24"/>
     <g id="text_13">
      <!-- 1.0 -->
      <g style="fill: #262626" transform="translate(20.345313 25.368281) scale(0.1 -0.1)">
       <use xlink:href="#ArialMT-31"/>
       <use xlink:href="#ArialMT-2e" transform="translate(55.615234 0)"/>
       <use xlink:href="#ArialMT-30" transform="translate(83.398438 0)"/>
      </g>
     </g>
    </g>
    <g id="text_14">
     <!-- Precision -->
     <g style="fill: #262626" transform="translate(14.357813 227.362656) rotate(-90) scale(0.1 -0.1)">
      <defs>
       <path id="ArialMT-50" d="M 494 0 
L 494 4581 
L 2222 4581 
Q 2678 4581 2919 4538 
Q 3256 4481 3484 4323 
Q 3713 4166 3852 3881 
Q 3991 3597 3991 3256 
Q 3991 2672 3619 2267 
Q 3247 1863 2275 1863 
L 1100 1863 
L 1100 0 
L 494 0 
z
M 1100 2403 
L 2284 2403 
Q 2872 2403 3119 2622 
Q 3366 2841 3366 3238 
Q 3366 3525 3220 3729 
Q 3075 3934 2838 4000 
Q 2684 4041 2272 4041 
L 1100 4041 
L 1100 2403 
z
" transform="scale(0.015625)"/>
       <path id="ArialMT-72" d="M 416 0 
L 416 3319 
L 922 3319 
L 922 2816 
Q 1116 3169 1280 3281 
Q 1444 3394 1641 3394 
Q 1925 3394 2219 3213 
L 2025 2691 
Q 1819 2813 1613 2813 
Q 1428 2813 1281 2702 
Q 1134 2591 1072 2394 
Q 978 2094 978 1738 
L 978 0 
L 416 0 
z
" transform="scale(0.015625)"/>
       <path id="ArialMT-69" d="M 425 3934 
L 425 4581 
L 988 4581 
L 988 3934 
L 425 3934 
z
M 425 0 
L 425 3319 
L 988 3319 
L 988 0 
L 425 0 
z
" transform="scale(0.015625)"/>
       <path id="ArialMT-73" d="M 197 991 
L 753 1078 
Q 800 744 1014 566 
Q 1228 388 1613 388 
Q 2000 388 2187 545 
Q 2375 703 2375 916 
Q 2375 1106 2209 1216 
Q 2094 1291 1634 1406 
Q 1016 1563 777 1677 
Q 538 1791 414 1992 
Q 291 2194 291 2438 
Q 291 2659 392 2848 
Q 494 3038 669 3163 
Q 800 3259 1026 3326 
Q 1253 3394 1513 3394 
Q 1903 3394 2198 3281 
Q 2494 3169 2634 2976 
Q 2775 2784 2828 2463 
L 2278 2388 
Q 2241 2644 2061 2787 
Q 1881 2931 1553 2931 
Q 1166 2931 1000 2803 
Q 834 2675 834 2503 
Q 834 2394 903 2306 
Q 972 2216 1119 2156 
Q 1203 2125 1616 2013 
Q 2213 1853 2448 1751 
Q 2684 1650 2818 1456 
Q 2953 1263 2953 975 
Q 2953 694 2789 445 
Q 2625 197 2315 61 
Q 2006 -75 1616 -75 
Q 969 -75 630 194 
Q 291 463 197 991 
z
" transform="scale(0.015625)"/>
       <path id="ArialMT-6f" d="M 213 1659 
Q 213 2581 725 3025 
Q 1153 3394 1769 3394 
Q 2453 3394 2887 2945 
Q 3322 2497 3322 1706 
Q 3322 1066 3130 698 
Q 2938 331 2570 128 
Q 2203 -75 1769 -75 
Q 1072 -75 642 372 
Q 213 819 213 1659 
z
M 791 1659 
Q 791 1022 1069 705 
Q 1347 388 1769 388 
Q 2188 388 2466 706 
Q 2744 1025 2744 1678 
Q 2744 2294 2464 2611 
Q 2184 2928 1769 2928 
Q 1347 2928 1069 2612 
Q 791 2297 791 1659 
z
" transform="scale(0.015625)"/>
       <path id="ArialMT-6e" d="M 422 0 
L 422 3319 
L 928 3319 
L 928 2847 
Q 1294 3394 1984 3394 
Q 2284 3394 2536 3286 
Q 2788 3178 2913 3003 
Q 3038 2828 3088 2588 
Q 3119 2431 3119 2041 
L 3119 0 
L 2556 0 
L 2556 2019 
Q 2556 2363 2490 2533 
Q 2425 2703 2258 2804 
Q 2091 2906 1866 2906 
Q 1506 2906 1245 2678 
Q 984 2450 984 1813 
L 984 0 
L 422 0 
z
" transform="scale(0.015625)"/>
      </defs>
      <use xlink:href="#ArialMT-50"/>
      <use xlink:href="#ArialMT-72" transform="translate(66.699219 0)"/>
      <use xlink:href="#ArialMT-65" transform="translate(100 0)"/>
      <use xlink:href="#ArialMT-63" transform="translate(155.615234 0)"/>
      <use xlink:href="#ArialMT-69" transform="translate(205.615234 0)"/>
      <use xlink:href="#ArialMT-73" transform="translate(227.832031 0)"/>
      <use xlink:href="#ArialMT-69" transform="translate(277.832031 0)"/>
      <use xlink:href="#ArialMT-6f" transform="translate(300.048828 0)"/>
      <use xlink:href="#ArialMT-6e" transform="translate(355.664062 0)"/>
     </g>
    </g>
   </g>
   <g id="line2d_25">
    <path d="M 37.745313 21.789375 
L 44.762869 21.789375 
L 44.762869 95.793375 
L 47.102055 95.793375 
L 47.102055 121.063034 
L 47.102055 121.063034 
L 107.920878 121.063034 
L 107.920878 123.443221 
L 107.920878 123.443221 
L 192.131557 123.443221 
L 192.131557 124.784633 
L 192.131557 124.784633 
L 201.488299 124.784633 
L 201.488299 124.968029 
L 201.488299 124.968029 
L 213.184227 124.968029 
L 213.184227 128.900428 
L 227.21934 128.900428 
L 227.21934 133.655887 
L 227.21934 133.655887 
L 248.272009 133.655887 
L 248.272009 136.906708 
L 248.272009 136.906708 
L 255.289566 136.906708 
L 255.289566 140.385529 
L 255.289566 140.385529 
L 285.698978 140.385529 
L 285.698978 142.045875 
L 295.05572 142.102627 
L 295.05572 142.157327 
L 299.734091 142.157327 
L 299.734091 143.837857 
L 299.734091 143.837857 
L 337.161059 143.837857 
L 337.161059 144.500089 
L 337.161059 144.500089 
L 344.178616 144.500089 
L 344.178616 151.469282 
L 344.178616 151.469282 
L 362.8921 151.469282 
L 362.8921 151.796402 
L 374.588027 151.796402 
L 374.588027 154.16722 
L 374.588027 154.16722 
L 386.283955 154.16722 
L 386.283955 154.617067 
L 388.623141 154.617067 
L 388.623141 155.494081 
L 388.623141 155.494081 
L 393.301512 155.494081 
L 393.301512 155.788387 
L 400.319068 155.788387 
L 400.319068 156.204804 
L 402.658254 156.204804 
L 402.658254 157.804632 
L 402.658254 157.804632 
L 412.014996 157.804632 
L 412.014996 162.815866 
L 412.014996 162.815866 
L 421.371738 162.815866 
L 421.371738 164.198388 
L 421.371738 164.198388 
L 475.173005 164.198388 
L 475.173005 165.953011 
L 477.51219 165.953011 
L 477.51219 169.09033 
L 479.851376 169.09033 
L 479.851376 169.564658 
L 479.851376 169.564658 
L 484.529747 169.564658 
L 484.529747 171.859406 
L 486.868932 171.859406 
L 486.868932 172.286806 
L 491.547303 172.286806 
L 491.547303 173.110987 
L 491.547303 173.110987 
L 500.904046 173.110987 
L 500.904046 176.50534 
L 503.243231 176.50534 
L 503.243231 177.305027 
L 505.582417 177.305027 
L 505.582417 178.703301 
L 507.921602 178.703301 
L 507.921602 178.863392 
L 510.260788 178.863392 
L 510.260788 179.178164 
L 510.260788 179.178164 
L 514.939159 179.178164 
L 514.939159 179.502818 
L 514.939159 179.502818 
L 528.974272 179.502818 
L 528.974272 179.651168 
L 531.313457 179.651168 
L 531.313457 180.369375 
L 543.009385 180.369375 
L 543.009385 181.063076 
L 545.34857 181.063076 
L 545.34857 189.643059 
L 547.687756 189.643059 
L 547.687756 192.707704 
L 552.366127 192.776612 
L 552.366127 203.389052 
L 554.705312 203.389052 
L 554.705312 391.809375 
L 554.705312 391.809375 
" clip-path="url(#pc3eeb84c42)" style="fill: none; stroke: #1f77b4; stroke-opacity: 0.65; stroke-width: 1.6; stroke-linecap: round"/>
   </g>
   <g id="line2d_26">
    <path d="M 37.745313 21.789375 
L 44.925313 21.789375 
L 44.925313 35.004375 
L 102.365313 35.004375 
L 102.365313 46.457375 
L 104.758646 46.457375 
L 104.758646 48.219375 
L 162.198646 48.219375 
L 162.198646 53.147002 
L 166.985313 53.147002 
L 166.985313 68.041875 
L 171.771979 68.041875 
L 171.771979 72.246648 
L 174.165313 72.246648 
L 174.165313 75.415462 
L 178.951979 75.415462 
L 178.951979 79.116417 
L 181.345313 79.116417 
L 181.345313 94.819638 
L 183.738646 94.819638 
L 183.738646 98.500838 
L 183.738646 98.500838 
L 193.311979 98.500838 
L 193.311979 103.53798 
L 198.098646 103.53798 
L 198.098646 105.225257 
L 226.818646 105.225257 
L 226.818646 112.612466 
L 226.818646 112.612466 
L 236.391979 112.612466 
L 236.391979 115.071728 
L 236.391979 115.071728 
L 250.751979 115.071728 
L 250.751979 116.380954 
L 274.685313 116.380954 
L 274.685313 119.735846 
L 277.078646 119.735846 
L 277.078646 124.135332 
L 281.865313 124.135332 
L 281.865313 127.142292 
L 284.258646 127.142292 
L 284.258646 128.233485 
L 286.651979 128.233485 
L 286.651979 131.057026 
L 289.045313 131.057026 
L 289.045313 133.769112 
L 291.438646 133.769112 
L 291.438646 138.013606 
L 293.831979 138.013606 
L 293.831979 141.29894 
L 298.618646 141.29894 
L 298.618646 144.386363 
L 332.125313 144.459049 
L 332.125313 146.448519 
L 334.518646 146.448519 
L 334.518646 147.056562 
L 334.518646 147.056562 
L 341.698646 147.056562 
L 341.698646 147.672468 
L 344.091979 147.672468 
L 344.091979 149.512015 
L 346.485313 149.512015 
L 346.485313 150.087767 
L 348.878646 150.087767 
L 348.878646 151.205237 
L 348.878646 151.205237 
L 353.665313 151.205237 
L 353.665313 151.747619 
L 356.058646 151.747619 
L 356.058646 154.308166 
L 356.058646 154.308166 
L 368.025312 154.308166 
L 368.025312 156.956498 
L 370.418646 156.956498 
L 370.418646 157.407565 
L 372.811979 157.407565 
L 372.811979 157.850541 
L 375.205313 157.850541 
L 375.205313 159.971118 
L 375.205313 159.971118 
L 399.138646 159.971118 
L 399.138646 161.674985 
L 399.138646 161.674985 
L 403.925313 161.674985 
L 403.925313 169.510538 
L 403.925313 169.510538 
L 408.711979 169.510538 
L 408.711979 170.616607 
L 408.711979 170.616607 
L 425.465313 170.616607 
L 425.465313 171.687988 
L 427.858646 171.687988 
L 427.858646 172.736162 
L 430.251979 172.736162 
L 430.251979 173.221048 
L 430.251979 173.221048 
L 435.038646 173.221048 
L 435.038646 175.748746 
L 437.431979 175.748746 
L 437.431979 175.964375 
L 439.825313 175.964375 
L 439.825313 178.38487 
L 442.218646 178.38487 
L 442.218646 178.619044 
L 442.218646 178.619044 
L 454.185313 178.619044 
L 454.185313 179.168011 
L 454.185313 179.168011 
L 461.365313 179.168011 
L 461.365313 182.169561 
L 461.365313 182.169561 
L 475.725313 182.169561 
L 475.725313 184.020366 
L 475.725313 184.020366 
L 485.298646 184.020366 
L 485.298646 186.121787 
L 485.298646 186.121787 
L 490.085313 186.121787 
L 490.085313 187.54978 
L 490.085313 187.54978 
L 494.871979 187.54978 
L 494.871979 190.552038 
L 497.265312 190.552038 
L 497.265312 191.208645 
L 499.658646 191.208645 
L 499.658646 193.511364 
L 504.445313 193.584375 
L 504.445313 193.656588 
L 506.838646 193.656588 
L 506.838646 196.905792 
L 509.231979 196.905792 
L 509.231979 198.630102 
L 509.231979 198.630102 
L 518.805313 198.630102 
L 518.805313 200.258617 
L 518.805313 200.258617 
L 528.378646 200.258617 
L 528.378646 201.724288 
L 530.771979 201.724288 
L 530.771979 204.994399 
L 533.165313 204.994399 
L 533.165313 205.905607 
L 535.558646 205.905607 
L 535.558646 207.651956 
L 535.558646 207.651956 
L 554.705312 207.651956 
L 554.705312 391.809375 
L 554.705312 391.809375 
" clip-path="url(#pc3eeb84c42)" style="fill: none; stroke: #ff7f0e; stroke-opacity: 0.65; stroke-width: 1.6; stroke-linecap: round"/>
   </g>
   <g id="line2d_27">
    <path d="M 37.745313 21.789375 
L 42.94089 21.789375 
L 45.538679 65.398875 
L 48.136468 78.033704 
L 100.092247 78.033704 
L 102.690036 83.760204 
L 105.287825 84.641204 
L 107.885614 84.641204 
L 110.483403 85.831298 
L 159.841393 85.831298 
L 162.439182 88.295112 
L 165.036971 88.295112 
L 167.63476 95.742548 
L 170.232549 95.742548 
L 172.830338 97.844934 
L 175.428127 99.429342 
L 178.025916 99.429342 
L 180.623704 101.279819 
L 183.221493 109.13143 
L 185.819282 110.97203 
L 191.01486 110.97203 
L 193.612649 114.161306 
L 196.210438 114.161306 
L 198.808227 115.004945 
L 211.797172 115.096643 
L 214.394961 117.062842 
L 224.786117 117.062842 
L 227.383905 123.134176 
L 235.177272 123.134176 
L 237.775061 124.363807 
L 248.166217 124.363807 
L 250.764006 126.643831 
L 253.361795 126.643831 
L 255.959584 128.383241 
L 274.144106 128.383241 
L 276.741895 130.060687 
L 279.339684 132.260431 
L 281.937473 133.76391 
L 284.535262 134.309507 
L 287.133051 136.551451 
L 289.73084 137.907493 
L 292.328629 140.058116 
L 294.926418 141.700783 
L 297.524207 141.728134 
L 300.121996 144.11211 
L 331.295463 144.148453 
L 333.893252 145.143188 
L 339.08883 145.778326 
L 341.686619 145.778326 
L 344.284408 150.490648 
L 346.882197 150.778524 
L 349.479986 151.337259 
L 352.077775 151.337259 
L 354.675564 151.60845 
L 357.273353 152.888724 
L 362.468931 152.888724 
L 365.06672 153.052284 
L 367.664508 153.052284 
L 370.262297 154.37645 
L 372.860086 154.823471 
L 375.457875 157.069169 
L 385.849031 157.069169 
L 388.44682 157.294093 
L 391.044609 157.732599 
L 393.642398 157.879753 
L 398.837976 157.879753 
L 401.435765 158.939894 
L 404.033554 163.657585 
L 406.631343 163.657585 
L 409.229132 164.21062 
L 411.826921 164.21062 
L 414.424709 166.716237 
L 419.620287 166.716237 
L 422.218076 167.407498 
L 424.815865 167.407498 
L 430.011443 168.467275 
L 432.609232 168.709718 
L 435.207021 169.973567 
L 437.80481 170.081382 
L 440.402599 171.291629 
L 443.000388 171.408716 
L 453.391544 171.408716 
L 455.989333 171.6832 
L 461.18491 171.6832 
L 463.782699 173.183974 
L 474.173855 173.183974 
L 476.771644 174.986689 
L 479.369433 176.555348 
L 481.967222 176.792512 
L 487.1628 179.204296 
L 489.760589 179.204296 
L 492.358378 180.330383 
L 494.956167 181.831512 
L 497.553956 182.159816 
L 500.151745 183.311175 
L 502.749534 185.044857 
L 505.347323 185.480808 
L 507.945111 187.884592 
L 510.5429 188.904133 
L 513.140689 188.904133 
L 515.738478 189.06646 
L 518.336267 189.06646 
L 520.934056 189.880718 
L 526.129634 189.880718 
L 528.727423 190.613553 
L 531.325212 192.681887 
L 533.923001 193.137491 
L 536.52079 194.010665 
L 541.716368 194.010665 
L 544.314157 194.357516 
L 546.911946 198.647507 
L 549.509735 200.17983 
L 552.107524 200.214284 
L 554.705312 391.809375 
L 554.705312 391.809375 
" clip-path="url(#pc3eeb84c42)" style="fill: none; stroke: #008000; stroke-width: 2.6; stroke-linecap: round"/>
   </g>
   <g id="patch_3">
    <path d="M 37.745313 391.809375 
L 37.745313 21.789375 
" style="fill: none; stroke: #cccccc; stroke-linejoin: miter; stroke-linecap: square"/>
   </g>
   <g id="patch_4">
    <path d="M 554.705312 391.809375 
L 554.705312 21.789375 
" style="fill: none; stroke: #cccccc; stroke-linejoin: miter; stroke-linecap: square"/>
   </g>
   <g id="patch_5">
    <path d="M 37.745313 391.809375 
L 554.705312 391.809375 
" style="fill: none; stroke: #cccccc; stroke-linejoin: miter; stroke-linecap: square"/>
   </g>
   <g id="patch_6">
    <path d="M 37.745313 21.789375 
L 554.705312 21.789375 
" style="fill: none; stroke: #cccccc; stroke-linejoin: miter; stroke-linecap: square"/>
   </g>
   <g id="text_15">
    <!-- Precision-Recall Curve -->
    <g style="fill: #262626" transform="translate(230.8675 15.789375) scale(0.12 -0.12)">
     <defs>
      <path id="Arial-BoldMT-50" d="M 466 0 
L 466 4581 
L 1950 4581 
Q 2794 4581 3050 4513 
Q 3444 4409 3709 4064 
Q 3975 3719 3975 3172 
Q 3975 2750 3822 2462 
Q 3669 2175 3433 2011 
Q 3197 1847 2953 1794 
Q 2622 1728 1994 1728 
L 1391 1728 
L 1391 0 
L 466 0 
z
M 1391 3806 
L 1391 2506 
L 1897 2506 
Q 2444 2506 2628 2578 
Q 2813 2650 2917 2803 
Q 3022 2956 3022 3159 
Q 3022 3409 2875 3571 
Q 2728 3734 2503 3775 
Q 2338 3806 1838 3806 
L 1391 3806 
z
" transform="scale(0.015625)"/>
      <path id="Arial-BoldMT-72" d="M 1300 0 
L 422 0 
L 422 3319 
L 1238 3319 
L 1238 2847 
Q 1447 3181 1614 3287 
Q 1781 3394 1994 3394 
Q 2294 3394 2572 3228 
L 2300 2463 
Q 2078 2606 1888 2606 
Q 1703 2606 1575 2504 
Q 1447 2403 1373 2137 
Q 1300 1872 1300 1025 
L 1300 0 
z
" transform="scale(0.015625)"/>
      <path id="Arial-BoldMT-65" d="M 2381 1056 
L 3256 909 
Q 3088 428 2723 176 
Q 2359 -75 1813 -75 
Q 947 -75 531 491 
Q 203 944 203 1634 
Q 203 2459 634 2926 
Q 1066 3394 1725 3394 
Q 2466 3394 2894 2905 
Q 3322 2416 3303 1406 
L 1103 1406 
Q 1113 1016 1316 798 
Q 1519 581 1822 581 
Q 2028 581 2168 693 
Q 2309 806 2381 1056 
z
M 2431 1944 
Q 2422 2325 2234 2523 
Q 2047 2722 1778 2722 
Q 1491 2722 1303 2513 
Q 1116 2303 1119 1944 
L 2431 1944 
z
" transform="scale(0.015625)"/>
      <path id="Arial-BoldMT-63" d="M 3353 2338 
L 2488 2181 
Q 2444 2441 2289 2572 
Q 2134 2703 1888 2703 
Q 1559 2703 1364 2476 
Q 1169 2250 1169 1719 
Q 1169 1128 1367 884 
Q 1566 641 1900 641 
Q 2150 641 2309 783 
Q 2469 925 2534 1272 
L 3397 1125 
Q 3263 531 2881 228 
Q 2500 -75 1859 -75 
Q 1131 -75 698 384 
Q 266 844 266 1656 
Q 266 2478 700 2936 
Q 1134 3394 1875 3394 
Q 2481 3394 2839 3133 
Q 3197 2872 3353 2338 
z
" transform="scale(0.015625)"/>
      <path id="Arial-BoldMT-69" d="M 459 3769 
L 459 4581 
L 1338 4581 
L 1338 3769 
L 459 3769 
z
M 459 0 
L 459 3319 
L 1338 3319 
L 1338 0 
L 459 0 
z
" transform="scale(0.015625)"/>
      <path id="Arial-BoldMT-73" d="M 150 947 
L 1031 1081 
Q 1088 825 1259 692 
Q 1431 559 1741 559 
Q 2081 559 2253 684 
Q 2369 772 2369 919 
Q 2369 1019 2306 1084 
Q 2241 1147 2013 1200 
Q 950 1434 666 1628 
Q 272 1897 272 2375 
Q 272 2806 612 3100 
Q 953 3394 1669 3394 
Q 2350 3394 2681 3172 
Q 3013 2950 3138 2516 
L 2309 2363 
Q 2256 2556 2107 2659 
Q 1959 2763 1684 2763 
Q 1338 2763 1188 2666 
Q 1088 2597 1088 2488 
Q 1088 2394 1175 2328 
Q 1294 2241 1995 2081 
Q 2697 1922 2975 1691 
Q 3250 1456 3250 1038 
Q 3250 581 2869 253 
Q 2488 -75 1741 -75 
Q 1063 -75 667 200 
Q 272 475 150 947 
z
" transform="scale(0.015625)"/>
      <path id="Arial-BoldMT-6f" d="M 256 1706 
Q 256 2144 472 2553 
Q 688 2963 1083 3178 
Q 1478 3394 1966 3394 
Q 2719 3394 3200 2905 
Q 3681 2416 3681 1669 
Q 3681 916 3195 420 
Q 2709 -75 1972 -75 
Q 1516 -75 1102 131 
Q 688 338 472 736 
Q 256 1134 256 1706 
z
M 1156 1659 
Q 1156 1166 1390 903 
Q 1625 641 1969 641 
Q 2313 641 2545 903 
Q 2778 1166 2778 1666 
Q 2778 2153 2545 2415 
Q 2313 2678 1969 2678 
Q 1625 2678 1390 2415 
Q 1156 2153 1156 1659 
z
" transform="scale(0.015625)"/>
      <path id="Arial-BoldMT-6e" d="M 3478 0 
L 2600 0 
L 2600 1694 
Q 2600 2231 2544 2389 
Q 2488 2547 2361 2634 
Q 2234 2722 2056 2722 
Q 1828 2722 1647 2597 
Q 1466 2472 1398 2265 
Q 1331 2059 1331 1503 
L 1331 0 
L 453 0 
L 453 3319 
L 1269 3319 
L 1269 2831 
Q 1703 3394 2363 3394 
Q 2653 3394 2893 3289 
Q 3134 3184 3257 3021 
Q 3381 2859 3429 2653 
Q 3478 2447 3478 2063 
L 3478 0 
z
" transform="scale(0.015625)"/>
      <path id="Arial-BoldMT-2d" d="M 359 1222 
L 359 2100 
L 2084 2100 
L 2084 1222 
L 359 1222 
z
" transform="scale(0.015625)"/>
      <path id="Arial-BoldMT-52" d="M 469 0 
L 469 4581 
L 2416 4581 
Q 3150 4581 3483 4457 
Q 3816 4334 4016 4018 
Q 4216 3703 4216 3297 
Q 4216 2781 3912 2445 
Q 3609 2109 3006 2022 
Q 3306 1847 3501 1637 
Q 3697 1428 4028 894 
L 4588 0 
L 3481 0 
L 2813 997 
Q 2456 1531 2325 1670 
Q 2194 1809 2047 1861 
Q 1900 1913 1581 1913 
L 1394 1913 
L 1394 0 
L 469 0 
z
M 1394 2644 
L 2078 2644 
Q 2744 2644 2909 2700 
Q 3075 2756 3169 2893 
Q 3263 3031 3263 3238 
Q 3263 3469 3139 3611 
Q 3016 3753 2791 3791 
Q 2678 3806 2116 3806 
L 1394 3806 
L 1394 2644 
z
" transform="scale(0.015625)"/>
      <path id="Arial-BoldMT-61" d="M 1116 2306 
L 319 2450 
Q 453 2931 781 3162 
Q 1109 3394 1756 3394 
Q 2344 3394 2631 3255 
Q 2919 3116 3036 2902 
Q 3153 2688 3153 2116 
L 3144 1091 
Q 3144 653 3186 445 
Q 3228 238 3344 0 
L 2475 0 
Q 2441 88 2391 259 
Q 2369 338 2359 363 
Q 2134 144 1878 34 
Q 1622 -75 1331 -75 
Q 819 -75 523 203 
Q 228 481 228 906 
Q 228 1188 362 1408 
Q 497 1628 739 1745 
Q 981 1863 1438 1950 
Q 2053 2066 2291 2166 
L 2291 2253 
Q 2291 2506 2166 2614 
Q 2041 2722 1694 2722 
Q 1459 2722 1328 2630 
Q 1197 2538 1116 2306 
z
M 2291 1594 
Q 2122 1538 1756 1459 
Q 1391 1381 1278 1306 
Q 1106 1184 1106 997 
Q 1106 813 1243 678 
Q 1381 544 1594 544 
Q 1831 544 2047 700 
Q 2206 819 2256 991 
Q 2291 1103 2291 1419 
L 2291 1594 
z
" transform="scale(0.015625)"/>
      <path id="Arial-BoldMT-6c" d="M 459 0 
L 459 4581 
L 1338 4581 
L 1338 0 
L 459 0 
z
" transform="scale(0.015625)"/>
      <path id="Arial-BoldMT-20" transform="scale(0.015625)"/>
      <path id="Arial-BoldMT-43" d="M 3397 1684 
L 4294 1400 
Q 4088 650 3608 286 
Q 3128 -78 2391 -78 
Q 1478 -78 890 545 
Q 303 1169 303 2250 
Q 303 3394 893 4026 
Q 1484 4659 2447 4659 
Q 3288 4659 3813 4163 
Q 4125 3869 4281 3319 
L 3366 3100 
Q 3284 3456 3026 3662 
Q 2769 3869 2400 3869 
Q 1891 3869 1573 3503 
Q 1256 3138 1256 2319 
Q 1256 1450 1568 1081 
Q 1881 713 2381 713 
Q 2750 713 3015 947 
Q 3281 1181 3397 1684 
z
" transform="scale(0.015625)"/>
      <path id="Arial-BoldMT-75" d="M 2644 0 
L 2644 497 
Q 2463 231 2167 78 
Q 1872 -75 1544 -75 
Q 1209 -75 943 72 
Q 678 219 559 484 
Q 441 750 441 1219 
L 441 3319 
L 1319 3319 
L 1319 1794 
Q 1319 1094 1367 936 
Q 1416 778 1544 686 
Q 1672 594 1869 594 
Q 2094 594 2272 717 
Q 2450 841 2515 1023 
Q 2581 1206 2581 1919 
L 2581 3319 
L 3459 3319 
L 3459 0 
L 2644 0 
z
" transform="scale(0.015625)"/>
      <path id="Arial-BoldMT-76" d="M 1372 0 
L 34 3319 
L 956 3319 
L 1581 1625 
L 1763 1059 
Q 1834 1275 1853 1344 
Q 1897 1484 1947 1625 
L 2578 3319 
L 3481 3319 
L 2163 0 
L 1372 0 
z
" transform="scale(0.015625)"/>
     </defs>
     <use xlink:href="#Arial-BoldMT-50"/>
     <use xlink:href="#Arial-BoldMT-72" transform="translate(66.699219 0)"/>
     <use xlink:href="#Arial-BoldMT-65" transform="translate(105.615234 0)"/>
     <use xlink:href="#Arial-BoldMT-63" transform="translate(161.230469 0)"/>
     <use xlink:href="#Arial-BoldMT-69" transform="translate(216.845703 0)"/>
     <use xlink:href="#Arial-BoldMT-73" transform="translate(244.628906 0)"/>
     <use xlink:href="#Arial-BoldMT-69" transform="translate(300.244141 0)"/>
     <use xlink:href="#Arial-BoldMT-6f" transform="translate(328.027344 0)"/>
     <use xlink:href="#Arial-BoldMT-6e" transform="translate(389.111328 0)"/>
     <use xlink:href="#Arial-BoldMT-2d" transform="translate(450.195312 0)"/>
     <use xlink:href="#Arial-BoldMT-52" transform="translate(483.496094 0)"/>
     <use xlink:href="#Arial-BoldMT-65" transform="translate(555.712891 0)"/>
     <use xlink:href="#Arial-BoldMT-63" transform="translate(611.328125 0)"/>
     <use xlink:href="#Arial-BoldMT-61" transform="translate(666.943359 0)"/>
     <use xlink:href="#Arial-BoldMT-6c" transform="translate(722.558594 0)"/>
     <use xlink:href="#Arial-BoldMT-6c" transform="translate(750.341797 0)"/>
     <use xlink:href="#Arial-BoldMT-20" transform="translate(778.125 0)"/>
     <use xlink:href="#Arial-BoldMT-43" transform="translate(805.908203 0)"/>
     <use xlink:href="#Arial-BoldMT-75" transform="translate(878.125 0)"/>
     <use xlink:href="#Arial-BoldMT-72" transform="translate(939.208984 0)"/>
     <use xlink:href="#Arial-BoldMT-76" transform="translate(978.125 0)"/>
     <use xlink:href="#Arial-BoldMT-65" transform="translate(1033.740234 0)"/>
    </g>
   </g>
   <g id="legend_1">
    <g id="patch_7">
     <path d="M 43.345313 62.573125 
L 166.886563 62.573125 
Q 168.486563 62.573125 168.486563 60.973125 
L 168.486563 27.389375 
Q 168.486563 25.789375 166.886563 25.789375 
L 43.345313 25.789375 
Q 41.745313 25.789375 41.745313 27.389375 
L 41.745313 60.973125 
Q 41.745313 62.573125 43.345313 62.573125 
z
" style="fill: #ffffff; opacity: 0.8; stroke: #cccccc; stroke-linejoin: miter"/>
    </g>
    <g id="line2d_28">
     <path d="M 44.945313 31.939375 
L 52.945313 31.939375 
L 60.945313 31.939375 
" style="fill: none; stroke: #1f77b4; stroke-opacity: 0.65; stroke-width: 1.6; stroke-linecap: round"/>
    </g>
    <g id="text_16">
     <!-- bignay 0.672 -->
     <g style="fill: #262626" transform="translate(67.345313 34.739375) scale(0.08 -0.08)">
      <defs>
       <path id="ArialMT-62" d="M 941 0 
L 419 0 
L 419 4581 
L 981 4581 
L 981 2947 
Q 1338 3394 1891 3394 
Q 2197 3394 2470 3270 
Q 2744 3147 2920 2923 
Q 3097 2700 3197 2384 
Q 3297 2069 3297 1709 
Q 3297 856 2875 390 
Q 2453 -75 1863 -75 
Q 1275 -75 941 416 
L 941 0 
z
M 934 1684 
Q 934 1088 1097 822 
Q 1363 388 1816 388 
Q 2184 388 2453 708 
Q 2722 1028 2722 1663 
Q 2722 2313 2464 2622 
Q 2206 2931 1841 2931 
Q 1472 2931 1203 2611 
Q 934 2291 934 1684 
z
" transform="scale(0.015625)"/>
       <path id="ArialMT-67" d="M 319 -275 
L 866 -356 
Q 900 -609 1056 -725 
Q 1266 -881 1628 -881 
Q 2019 -881 2231 -725 
Q 2444 -569 2519 -288 
Q 2563 -116 2559 434 
Q 2191 0 1641 0 
Q 956 0 581 494 
Q 206 988 206 1678 
Q 206 2153 378 2554 
Q 550 2956 876 3175 
Q 1203 3394 1644 3394 
Q 2231 3394 2613 2919 
L 2613 3319 
L 3131 3319 
L 3131 450 
Q 3131 -325 2973 -648 
Q 2816 -972 2473 -1159 
Q 2131 -1347 1631 -1347 
Q 1038 -1347 672 -1080 
Q 306 -813 319 -275 
z
M 784 1719 
Q 784 1066 1043 766 
Q 1303 466 1694 466 
Q 2081 466 2343 764 
Q 2606 1063 2606 1700 
Q 2606 2309 2336 2618 
Q 2066 2928 1684 2928 
Q 1309 2928 1046 2623 
Q 784 2319 784 1719 
z
" transform="scale(0.015625)"/>
       <path id="ArialMT-79" d="M 397 -1278 
L 334 -750 
Q 519 -800 656 -800 
Q 844 -800 956 -737 
Q 1069 -675 1141 -563 
Q 1194 -478 1313 -144 
Q 1328 -97 1363 -6 
L 103 3319 
L 709 3319 
L 1400 1397 
Q 1534 1031 1641 628 
Q 1738 1016 1872 1384 
L 2581 3319 
L 3144 3319 
L 1881 -56 
Q 1678 -603 1566 -809 
Q 1416 -1088 1222 -1217 
Q 1028 -1347 759 -1347 
Q 597 -1347 397 -1278 
z
" transform="scale(0.015625)"/>
       <path id="ArialMT-20" transform="scale(0.015625)"/>
       <path id="ArialMT-37" d="M 303 3981 
L 303 4522 
L 3269 4522 
L 3269 4084 
Q 2831 3619 2401 2847 
Q 1972 2075 1738 1259 
Q 1569 684 1522 0 
L 944 0 
Q 953 541 1156 1306 
Q 1359 2072 1739 2783 
Q 2119 3494 2547 3981 
L 303 3981 
z
" transform="scale(0.015625)"/>
      </defs>
      <use xlink:href="#ArialMT-62"/>
      <use xlink:href="#ArialMT-69" transform="translate(55.615234 0)"/>
      <use xlink:href="#ArialMT-67" transform="translate(77.832031 0)"/>
      <use xlink:href="#ArialMT-6e" transform="translate(133.447266 0)"/>
      <use xlink:href="#ArialMT-61" transform="translate(189.0625 0)"/>
      <use xlink:href="#ArialMT-79" transform="translate(244.677734 0)"/>
      <use xlink:href="#ArialMT-20" transform="translate(294.677734 0)"/>
      <use xlink:href="#ArialMT-30" transform="translate(322.460938 0)"/>
      <use xlink:href="#ArialMT-2e" transform="translate(378.076172 0)"/>
      <use xlink:href="#ArialMT-36" transform="translate(405.859375 0)"/>
      <use xlink:href="#ArialMT-37" transform="translate(461.474609 0)"/>
      <use xlink:href="#ArialMT-32" transform="translate(517.089844 0)"/>
     </g>
    </g>
    <g id="line2d_29">
     <path d="M 44.945313 43.373125 
L 52.945313 43.373125 
L 60.945313 43.373125 
" style="fill: none; stroke: #ff7f0e; stroke-opacity: 0.65; stroke-width: 1.6; stroke-linecap: round"/>
    </g>
    <g id="text_17">
     <!-- not_bignay 0.725 -->
     <g style="fill: #262626" transform="translate(67.345313 46.173125) scale(0.08 -0.08)">
      <defs>
       <path id="ArialMT-74" d="M 1650 503 
L 1731 6 
Q 1494 -44 1306 -44 
Q 1000 -44 831 53 
Q 663 150 594 308 
Q 525 466 525 972 
L 525 2881 
L 113 2881 
L 113 3319 
L 525 3319 
L 525 4141 
L 1084 4478 
L 1084 3319 
L 1650 3319 
L 1650 2881 
L 1084 2881 
L 1084 941 
Q 1084 700 1114 631 
Q 1144 563 1211 522 
Q 1278 481 1403 481 
Q 1497 481 1650 503 
z
" transform="scale(0.015625)"/>
       <path id="ArialMT-5f" d="M -97 -1272 
L -97 -866 
L 3631 -866 
L 3631 -1272 
L -97 -1272 
z
" transform="scale(0.015625)"/>
       <path id="ArialMT-35" d="M 266 1200 
L 856 1250 
Q 922 819 1161 601 
Q 1400 384 1738 384 
Q 2144 384 2425 690 
Q 2706 997 2706 1503 
Q 2706 1984 2436 2262 
Q 2166 2541 1728 2541 
Q 1456 2541 1237 2417 
Q 1019 2294 894 2097 
L 366 2166 
L 809 4519 
L 3088 4519 
L 3088 3981 
L 1259 3981 
L 1013 2750 
Q 1425 3038 1878 3038 
Q 2478 3038 2890 2622 
Q 3303 2206 3303 1553 
Q 3303 931 2941 478 
Q 2500 -78 1738 -78 
Q 1113 -78 717 272 
Q 322 622 266 1200 
z
" transform="scale(0.015625)"/>
      </defs>
      <use xlink:href="#ArialMT-6e"/>
      <use xlink:href="#ArialMT-6f" transform="translate(55.615234 0)"/>
      <use xlink:href="#ArialMT-74" transform="translate(111.230469 0)"/>
      <use xlink:href="#ArialMT-5f" transform="translate(139.013672 0)"/>
      <use xlink:href="#ArialMT-62" transform="translate(194.628906 0)"/>
      <use xlink:href="#ArialMT-69" transform="translate(250.244141 0)"/>
      <use xlink:href="#ArialMT-67" transform="translate(272.460938 0)"/>
      <use xlink:href="#ArialMT-6e" transform="translate(328.076172 0)"/>
      <use xlink:href="#ArialMT-61" transform="translate(383.691406 0)"/>
      <use xlink:href="#ArialMT-79" transform="translate(439.306641 0)"/>
      <use xlink:href="#ArialMT-20" transform="translate(489.306641 0)"/>
      <use xlink:href="#ArialMT-30" transform="translate(517.089844 0)"/>
      <use xlink:href="#ArialMT-2e" transform="translate(572.705078 0)"/>
      <use xlink:href="#ArialMT-37" transform="translate(600.488281 0)"/>
      <use xlink:href="#ArialMT-32" transform="translate(656.103516 0)"/>
      <use xlink:href="#ArialMT-35" transform="translate(711.71875 0)"/>
     </g>
    </g>
    <g id="line2d_30">
     <path d="M 44.945313 54.889375 
L 52.945313 54.889375 
L 60.945313 54.889375 
" style="fill: none; stroke: #008000; stroke-width: 2.6; stroke-linecap: round"/>
    </g>
    <g id="text_18">
     <!-- all classes 0.698 mAP@0.5 -->
     <g style="fill: #262626" transform="translate(67.345313 57.689375) scale(0.08 -0.08)">
      <defs>
       <path id="ArialMT-39" d="M 350 1059 
L 891 1109 
Q 959 728 1153 556 
Q 1347 384 1650 384 
Q 1909 384 2104 503 
Q 2300 622 2425 820 
Q 2550 1019 2634 1356 
Q 2719 1694 2719 2044 
Q 2719 2081 2716 2156 
Q 2547 1888 2255 1720 
Q 1963 1553 1622 1553 
Q 1053 1553 659 1965 
Q 266 2378 266 3053 
Q 266 3750 677 4175 
Q 1088 4600 1706 4600 
Q 2153 4600 2523 4359 
Q 2894 4119 3086 3673 
Q 3278 3228 3278 2384 
Q 3278 1506 3087 986 
Q 2897 466 2520 194 
Q 2144 -78 1638 -78 
Q 1100 -78 759 220 
Q 419 519 350 1059 
z
M 2653 3081 
Q 2653 3566 2395 3850 
Q 2138 4134 1775 4134 
Q 1400 4134 1122 3828 
Q 844 3522 844 3034 
Q 844 2597 1108 2323 
Q 1372 2050 1759 2050 
Q 2150 2050 2401 2323 
Q 2653 2597 2653 3081 
z
" transform="scale(0.015625)"/>
       <path id="ArialMT-6d" d="M 422 0 
L 422 3319 
L 925 3319 
L 925 2853 
Q 1081 3097 1340 3245 
Q 1600 3394 1931 3394 
Q 2300 3394 2536 3241 
Q 2772 3088 2869 2813 
Q 3263 3394 3894 3394 
Q 4388 3394 4653 3120 
Q 4919 2847 4919 2278 
L 4919 0 
L 4359 0 
L 4359 2091 
Q 4359 2428 4304 2576 
Q 4250 2725 4106 2815 
Q 3963 2906 3769 2906 
Q 3419 2906 3187 2673 
Q 2956 2441 2956 1928 
L 2956 0 
L 2394 0 
L 2394 2156 
Q 2394 2531 2256 2718 
Q 2119 2906 1806 2906 
Q 1569 2906 1367 2781 
Q 1166 2656 1075 2415 
Q 984 2175 984 1722 
L 984 0 
L 422 0 
z
" transform="scale(0.015625)"/>
       <path id="ArialMT-41" d="M -9 0 
L 1750 4581 
L 2403 4581 
L 4278 0 
L 3588 0 
L 3053 1388 
L 1138 1388 
L 634 0 
L -9 0 
z
M 1313 1881 
L 2866 1881 
L 2388 3150 
Q 2169 3728 2063 4100 
Q 1975 3659 1816 3225 
L 1313 1881 
z
" transform="scale(0.015625)"/>
       <path id="ArialMT-40" d="M 3628 509 
Q 3425 275 3173 133 
Q 2922 -9 2669 -9 
Q 2391 -9 2128 153 
Q 1866 316 1702 653 
Q 1538 991 1538 1394 
Q 1538 1891 1792 2389 
Q 2047 2888 2425 3138 
Q 2803 3388 3159 3388 
Q 3431 3388 3678 3245 
Q 3925 3103 4103 2813 
L 4209 3297 
L 4769 3297 
L 4319 1200 
Q 4225 763 4225 716 
Q 4225 631 4289 570 
Q 4353 509 4444 509 
Q 4609 509 4878 700 
Q 5234 950 5442 1370 
Q 5650 1791 5650 2238 
Q 5650 2759 5383 3212 
Q 5116 3666 4586 3937 
Q 4056 4209 3416 4209 
Q 2684 4209 2079 3867 
Q 1475 3525 1142 2886 
Q 809 2247 809 1516 
Q 809 750 1142 197 
Q 1475 -356 2104 -620 
Q 2734 -884 3500 -884 
Q 4319 -884 4872 -609 
Q 5425 -334 5700 59 
L 6266 59 
Q 6106 -269 5718 -609 
Q 5331 -950 4797 -1148 
Q 4263 -1347 3509 -1347 
Q 2816 -1347 2230 -1169 
Q 1644 -991 1231 -633 
Q 819 -275 609 191 
Q 347 781 347 1466 
Q 347 2228 659 2919 
Q 1041 3766 1742 4216 
Q 2444 4666 3444 4666 
Q 4219 4666 4836 4348 
Q 5453 4031 5809 3403 
Q 6113 2863 6113 2228 
Q 6113 1322 5475 619 
Q 4906 -13 4231 -13 
Q 4016 -13 3883 53 
Q 3750 119 3688 241 
Q 3647 319 3628 509 
z
M 2116 1356 
Q 2116 928 2319 690 
Q 2522 453 2784 453 
Q 2959 453 3153 558 
Q 3347 663 3523 869 
Q 3700 1075 3812 1392 
Q 3925 1709 3925 2028 
Q 3925 2453 3714 2687 
Q 3503 2922 3200 2922 
Q 3000 2922 2823 2820 
Q 2647 2719 2481 2494 
Q 2316 2269 2216 1947 
Q 2116 1625 2116 1356 
z
" transform="scale(0.015625)"/>
      </defs>
      <use xlink:href="#ArialMT-61"/>
      <use xlink:href="#ArialMT-6c" transform="translate(55.615234 0)"/>
      <use xlink:href="#ArialMT-6c" transform="translate(77.832031 0)"/>
      <use xlink:href="#ArialMT-20" transform="translate(100.048828 0)"/>
      <use xlink:href="#ArialMT-63" transform="translate(127.832031 0)"/>
      <use xlink:href="#ArialMT-6c" transform="translate(177.832031 0)"/>
      <use xlink:href="#ArialMT-61" transform="translate(200.048828 0)"/>
      <use xlink:href="#ArialMT-73" transform="translate(255.664062 0)"/>
      <use xlink:href="#ArialMT-73" transform="translate(305.664062 0)"/>
      <use xlink:href="#ArialMT-65" transform="translate(355.664062 0)"/>
      <use xlink:href="#ArialMT-73" transform="translate(411.279297 0)"/>
      <use xlink:href="#ArialMT-20" transform="translate(461.279297 0)"/>
      <use xlink:href="#ArialMT-30" transform="translate(489.0625 0)"/>
      <use xlink:href="#ArialMT-2e" transform="translate(544.677734 0)"/>
      <use xlink:href="#ArialMT-36" transform="translate(572.460938 0)"/>
      <use xlink:href="#ArialMT-39" transform="translate(628.076172 0)"/>
      <use xlink:href="#ArialMT-38" transform="translate(683.691406 0)"/>
      <use xlink:href="#ArialMT-20" transform="translate(739.306641 0)"/>
      <use xlink:href="#ArialMT-6d" transform="translate(767.089844 0)"/>
      <use xlink:href="#ArialMT-41" transform="translate(850.390625 0)"/>
      <use xlink:href="#ArialMT-50" transform="translate(917.089844 0)"/>
      <use xlink:href="#ArialMT-40" transform="translate(983.789062 0)"/>
      <use xlink:href="#ArialMT-30" transform="translate(1085.302734 0)"/>
      <use xlink:href="#ArialMT-2e" transform="translate(1140.917969 0)"/>
      <use xlink:href="#ArialMT-35" transform="translate(1168.701172 0)"/>
     </g>
    </g>
   </g>
  </g>
 </g>
 <defs>
  <clipPath id="pc3eeb84c42">
   <rect x="37.745313" y="21.789375" width="516.96" height="370.02"/>
  </clipPath>
 </defs>
</svg>
