<?xml version="1.0" encoding="utf-8" standalone="no"?>
<!DOCTYPE svg PUBLIC "-//W3C//DTD SVG 1.1//EN"
  "http://www.w3.org/Graphics/SVG/1.1/DTD/svg11.dtd">
<svg xmlns:xlink="http://www.w3.org/1999/xlink" width="1000.78625pt" height="414.36pt" viewBox="0 0 1000.78625 414.36" xmlns="http://www.w3.org/2000/svg" version="1.1">
 <metadata>
  <rdf:RDF xmlns:dc="http://purl.org/dc/elements/1.1/" xmlns:cc="http://creativecommons.org/ns#" xmlns:rdf="http://www.w3.org/1999/02/22-rdf-syntax-ns#">
   <cc:Work>
    <dc:type rdf:resource="http://purl.org/dc/dcmitype/StillImage"/>
    <dc:date>2026-03-24T17:38:09.189224</dc:date>
    <dc:format>image/svg+xml</dc:format>
    <dc:creator>
     <cc:Agent>
      <dc:title>Matplotlib v3.10.8, https://matplotlib.org/</dc:title>
     </cc:Agent>
    </dc:creator>
   </cc:Work>
  </rdf:RDF>
 </metadata>
 <defs>
  <style type="text/css">*{stroke-linejoin: round; stroke-linecap: butt}</style>
 </defs>
 <g id="figure_1">
  <g id="patch_1">
   <path d="M 0 414.36 
L 1000.78625 414.36 
L 1000.78625 0 
L 0 0 
z
" style="fill: #f7f7f7"/>
  </g>
  <g id="axes_1">
   <g id="patch_2">
    <path d="M 35.20625 358.74 
L 488.19125 358.74 
L 488.19125 84.0075 
L 35.20625 84.0075 
z
" style="fill: #ffffff"/>
   </g>
   <g id="matplotlib.axis_1">
    <g id="xtick_1">
     <g id="line2d_1">
      <path d="M 91.829375 358.74 
L 91.829375 84.0075 
" clip-path="url(#p9f30a2af99)" style="fill: none; stroke: #cccccc; stroke-opacity: 0.25; stroke-width: 0.8; stroke-linecap: round"/>
     </g>
     <g id="line2d_2"/>
     <g id="text_1">
      <!-- 5 -->
      <g style="fill: #262626" transform="translate(89.048906 369.397812) scale(0.1 -0.1)">
       <defs>
        <path id="ArialMT-35" d="M 266 1200 
L 856 1250 
Q 922 819 1161 601 
Q 1400 384 1738 384 
Q 2144 384 2425 690 
Q 2706 997 2706 1503 
Q 2706 1984 2436 2262 
Q 2166 2541 1728 2541 
Q 1456 2541 1237 2417 
Q 1019 2294 894 2097 
L 366 2166 
L 809 4519 
L 3088 4519 
L 3088 3981 
L 1259 3981 
L 1013 2750 
Q 1425 3038 1878 3038 
Q 2478 3038 2890 2622 
Q 3303 2206 3303 1553 
Q 3303 931 2941 478 
Q 2500 -78 1738 -78 
Q 1113 -78 717 272 
Q 322 622 266 1200 
z
" transform="scale(0.015625)"/>
       </defs>
       <use xlink:href="#ArialMT-35"/>
      </g>
     </g>
    </g>
    <g id="xtick_2">
     <g id="line2d_3">
      <path d="M 162.608281 358.74 
L 162.608281 84.0075 
" clip-path="url(#p9f30a2af99)" style="fill: none; stroke: #cccccc; stroke-opacity: 0.25; stroke-width: 0.8; stroke-linecap: round"/>
     </g>
     <g id="line2d_4"/>
     <g id="text_2">
      <!-- 10 -->
      <g style="fill: #262626" transform="translate(157.047344 369.397812) scale(0.1 -0.1)">
       <defs>
        <path id="ArialMT-31" d="M 2384 0 
L 1822 0 
L 1822 3584 
Q 1619 3391 1289 3197 
Q 959 3003 697 2906 
L 697 3450 
Q 1169 3672 1522 3987 
Q 1875 4303 2022 4600 
L 2384 4600 
L 2384 0 
z
" transform="scale(0.015625)"/>
        <path id="ArialMT-30" d="M 266 2259 
Q 266 3072 433 3567 
Q 600 4063 929 4331 
Q 1259 4600 1759 4600 
Q 2128 4600 2406 4451 
Q 2684 4303 2865 4023 
Q 3047 3744 3150 3342 
Q 3253 2941 3253 2259 
Q 3253 1453 3087 958 
Q 2922 463 2592 192 
Q 2263 -78 1759 -78 
Q 1097 -78 719 397 
Q 266 969 266 2259 
z
M 844 2259 
Q 844 1131 1108 757 
Q 1372 384 1759 384 
Q 2147 384 2411 759 
Q 2675 1134 2675 2259 
Q 2675 3391 2411 3762 
Q 2147 4134 1753 4134 
Q 1366 4134 1134 3806 
Q 844 3388 844 2259 
z
" transform="scale(0.015625)"/>
       </defs>
       <use xlink:href="#ArialMT-31"/>
       <use xlink:href="#ArialMT-30" transform="translate(55.615234 0)"/>
      </g>
     </g>
    </g>
    <g id="xtick_3">
     <g id="line2d_5">
      <path d="M 233.387188 358.74 
L 233.387188 84.0075 
" clip-path="url(#p9f30a2af99)" style="fill: none; stroke: #cccccc; stroke-opacity: 0.25; stroke-width: 0.8; stroke-linecap: round"/>
     </g>
     <g id="line2d_6"/>
     <g id="text_3">
      <!-- 15 -->
      <g style="fill: #262626" transform="translate(227.82625 369.397812) scale(0.1 -0.1)">
       <use xlink:href="#ArialMT-31"/>
       <use xlink:href="#ArialMT-35" transform="translate(55.615234 0)"/>
      </g>
     </g>
    </g>
    <g id="xtick_4">
     <g id="line2d_7">
      <path d="M 304.166094 358.74 
L 304.166094 84.0075 
" clip-path="url(#p9f30a2af99)" style="fill: none; stroke: #cccccc; stroke-opacity: 0.25; stroke-width: 0.8; stroke-linecap: round"/>
     </g>
     <g id="line2d_8"/>
     <g id="text_4">
      <!-- 20 -->
      <g style="fill: #262626" transform="translate(298.605156 369.397812) scale(0.1 -0.1)">
       <defs>
        <path id="ArialMT-32" d="M 3222 541 
L 3222 0 
L 194 0 
Q 188 203 259 391 
Q 375 700 629 1000 
Q 884 1300 1366 1694 
Q 2113 2306 2375 2664 
Q 2638 3022 2638 3341 
Q 2638 3675 2398 3904 
Q 2159 4134 1775 4134 
Q 1369 4134 1125 3890 
Q 881 3647 878 3216 
L 300 3275 
Q 359 3922 746 4261 
Q 1134 4600 1788 4600 
Q 2447 4600 2831 4234 
Q 3216 3869 3216 3328 
Q 3216 3053 3103 2787 
Q 2991 2522 2730 2228 
Q 2469 1934 1863 1422 
Q 1356 997 1212 845 
Q 1069 694 975 541 
L 3222 541 
z
" transform="scale(0.015625)"/>
       </defs>
       <use xlink:href="#ArialMT-32"/>
       <use xlink:href="#ArialMT-30" transform="translate(55.615234 0)"/>
      </g>
     </g>
    </g>
    <g id="xtick_5">
     <g id="line2d_9">
      <path d="M 374.945 358.74 
L 374.945 84.0075 
" clip-path="url(#p9f30a2af99)" style="fill: none; stroke: #cccccc; stroke-opacity: 0.25; stroke-width: 0.8; stroke-linecap: round"/>
     </g>
     <g id="line2d_10"/>
     <g id="text_5">
      <!-- 25 -->
      <g style="fill: #262626" transform="translate(369.384062 369.397812) scale(0.1 -0.1)">
       <use xlink:href="#ArialMT-32"/>
       <use xlink:href="#ArialMT-35" transform="translate(55.615234 0)"/>
      </g>
     </g>
    </g>
    <g id="xtick_6">
     <g id="line2d_11">
      <path d="M 445.723906 358.74 
L 445.723906 84.0075 
" clip-path="url(#p9f30a2af99)" style="fill: none; stroke: #cccccc; stroke-opacity: 0.25; stroke-width: 0.8; stroke-linecap: round"/>
     </g>
     <g id="line2d_12"/>
     <g id="text_6">
      <!-- 30 -->
      <g style="fill: #262626" transform="translate(440.162969 369.397812) scale(0.1 -0.1)">
       <defs>
        <path id="ArialMT-33" d="M 269 1209 
L 831 1284 
Q 928 806 1161 595 
Q 1394 384 1728 384 
Q 2125 384 2398 659 
Q 2672 934 2672 1341 
Q 2672 1728 2419 1979 
Q 2166 2231 1775 2231 
Q 1616 2231 1378 2169 
L 1441 2663 
Q 1497 2656 1531 2656 
Q 1891 2656 2178 2843 
Q 2466 3031 2466 3422 
Q 2466 3731 2256 3934 
Q 2047 4138 1716 4138 
Q 1388 4138 1169 3931 
Q 950 3725 888 3313 
L 325 3413 
Q 428 3978 793 4289 
Q 1159 4600 1703 4600 
Q 2078 4600 2393 4439 
Q 2709 4278 2876 4000 
Q 3044 3722 3044 3409 
Q 3044 3113 2884 2869 
Q 2725 2625 2413 2481 
Q 2819 2388 3044 2092 
Q 3269 1797 3269 1353 
Q 3269 753 2831 336 
Q 2394 -81 1725 -81 
Q 1122 -81 723 278 
Q 325 638 269 1209 
z
" transform="scale(0.015625)"/>
       </defs>
       <use xlink:href="#ArialMT-33"/>
       <use xlink:href="#ArialMT-30" transform="translate(55.615234 0)"/>
      </g>
     </g>
    </g>
    <g id="text_7">
     <!-- Epoch -->
     <g style="fill: #262626" transform="translate(247.522188 382.543125) scale(0.1 -0.1)">
      <defs>
       <path id="ArialMT-45" d="M 506 0 
L 506 4581 
L 3819 4581 
L 3819 4041 
L 1113 4041 
L 1113 2638 
L 3647 2638 
L 3647 2100 
L 1113 2100 
L 1113 541 
L 3925 541 
L 3925 0 
L 506 0 
z
" transform="scale(0.015625)"/>
       <path id="ArialMT-70" d="M 422 -1272 
L 422 3319 
L 934 3319 
L 934 2888 
Q 1116 3141 1344 3267 
Q 1572 3394 1897 3394 
Q 2322 3394 2647 3175 
Q 2972 2956 3137 2557 
Q 3303 2159 3303 1684 
Q 3303 1175 3120 767 
Q 2938 359 2589 142 
Q 2241 -75 1856 -75 
Q 1575 -75 1351 44 
Q 1128 163 984 344 
L 984 -1272 
L 422 -1272 
z
M 931 1641 
Q 931 1000 1190 694 
Q 1450 388 1819 388 
Q 2194 388 2461 705 
Q 2728 1022 2728 1688 
Q 2728 2322 2467 2637 
Q 2206 2953 1844 2953 
Q 1484 2953 1207 2617 
Q 931 2281 931 1641 
z
" transform="scale(0.015625)"/>
       <path id="ArialMT-6f" d="M 213 1659 
Q 213 2581 725 3025 
Q 1153 3394 1769 3394 
Q 2453 3394 2887 2945 
Q 3322 2497 3322 1706 
Q 3322 1066 3130 698 
Q 2938 331 2570 128 
Q 2203 -75 1769 -75 
Q 1072 -75 642 372 
Q 213 819 213 1659 
z
M 791 1659 
Q 791 1022 1069 705 
Q 1347 388 1769 388 
Q 2188 388 2466 706 
Q 2744 1025 2744 1678 
Q 2744 2294 2464 2611 
Q 2184 2928 1769 2928 
Q 1347 2928 1069 2612 
Q 791 2297 791 1659 
z
" transform="scale(0.015625)"/>
       <path id="ArialMT-63" d="M 2588 1216 
L 3141 1144 
Q 3050 572 2676 248 
Q 2303 -75 1759 -75 
Q 1078 -75 664 370 
Q 250 816 250 1647 
Q 250 2184 428 2587 
Q 606 2991 970 3192 
Q 1334 3394 1763 3394 
Q 2303 3394 2647 3120 
Q 2991 2847 3088 2344 
L 2541 2259 
Q 2463 2594 2264 2762 
Q 2066 2931 1784 2931 
Q 1359 2931 1093 2626 
Q 828 2322 828 1663 
Q 828 994 1084 691 
Q 1341 388 1753 388 
Q 2084 388 2306 591 
Q 2528 794 2588 1216 
z
" transform="scale(0.015625)"/>
       <path id="ArialMT-68" d="M 422 0 
L 422 4581 
L 984 4581 
L 984 2938 
Q 1378 3394 1978 3394 
Q 2347 3394 2619 3248 
Q 2891 3103 3008 2847 
Q 3125 2591 3125 2103 
L 3125 0 
L 2563 0 
L 2563 2103 
Q 2563 2525 2380 2717 
Q 2197 2909 1863 2909 
Q 1613 2909 1392 2779 
Q 1172 2650 1078 2428 
Q 984 2206 984 1816 
L 984 0 
L 422 0 
z
" transform="scale(0.015625)"/>
      </defs>
      <use xlink:href="#ArialMT-45"/>
      <use xlink:href="#ArialMT-70" transform="translate(66.699219 0)"/>
      <use xlink:href="#ArialMT-6f" transform="translate(122.314453 0)"/>
      <use xlink:href="#ArialMT-63" transform="translate(177.929688 0)"/>
      <use xlink:href="#ArialMT-68" transform="translate(227.929688 0)"/>
     </g>
    </g>
   </g>
   <g id="matplotlib.axis_2">
    <g id="ytick_1">
     <g id="line2d_13">
      <path d="M 35.20625 356.880109 
L 488.19125 356.880109 
" clip-path="url(#p9f30a2af99)" style="fill: none; stroke: #cccccc; stroke-opacity: 0.25; stroke-width: 0.8; stroke-linecap: round"/>
     </g>
     <g id="line2d_14"/>
     <g id="text_8">
      <!-- 90 -->
      <g style="fill: #262626" transform="translate(20.584375 360.459015) scale(0.1 -0.1)">
       <defs>
        <path id="ArialMT-39" d="M 350 1059 
L 891 1109 
Q 959 728 1153 556 
Q 1347 384 1650 384 
Q 1909 384 2104 503 
Q 2300 622 2425 820 
Q 2550 1019 2634 1356 
Q 2719 1694 2719 2044 
Q 2719 2081 2716 2156 
Q 2547 1888 2255 1720 
Q 1963 1553 1622 1553 
Q 1053 1553 659 1965 
Q 266 2378 266 3053 
Q 266 3750 677 4175 
Q 1088 4600 1706 4600 
Q 2153 4600 2523 4359 
Q 2894 4119 3086 3673 
Q 3278 3228 3278 2384 
Q 3278 1506 3087 986 
Q 2897 466 2520 194 
Q 2144 -78 1638 -78 
Q 1100 -78 759 220 
Q 419 519 350 1059 
z
M 2653 3081 
Q 2653 3566 2395 3850 
Q 2138 4134 1775 4134 
Q 1400 4134 1122 3828 
Q 844 3522 844 3034 
Q 844 2597 1108 2323 
Q 1372 2050 1759 2050 
Q 2150 2050 2401 2323 
Q 2653 2597 2653 3081 
z
" transform="scale(0.015625)"/>
       </defs>
       <use xlink:href="#ArialMT-39"/>
       <use xlink:href="#ArialMT-30" transform="translate(55.615234 0)"/>
      </g>
     </g>
    </g>
    <g id="ytick_2">
     <g id="line2d_15">
      <path d="M 35.20625 300.943531 
L 488.19125 300.943531 
" clip-path="url(#p9f30a2af99)" style="fill: none; stroke: #cccccc; stroke-opacity: 0.25; stroke-width: 0.8; stroke-linecap: round"/>
     </g>
     <g id="line2d_16"/>
     <g id="text_9">
      <!-- 92 -->
      <g style="fill: #262626" transform="translate(20.584375 304.522438) scale(0.1 -0.1)">
       <use xlink:href="#ArialMT-39"/>
       <use xlink:href="#ArialMT-32" transform="translate(55.615234 0)"/>
      </g>
     </g>
    </g>
    <g id="ytick_3">
     <g id="line2d_17">
      <path d="M 35.20625 245.006954 
L 488.19125 245.006954 
" clip-path="url(#p9f30a2af99)" style="fill: none; stroke: #cccccc; stroke-opacity: 0.25; stroke-width: 0.8; stroke-linecap: round"/>
     </g>
     <g id="line2d_18"/>
     <g id="text_10">
      <!-- 94 -->
      <g style="fill: #262626" transform="translate(20.584375 248.58586) scale(0.1 -0.1)">
       <defs>
        <path id="ArialMT-34" d="M 2069 0 
L 2069 1097 
L 81 1097 
L 81 1613 
L 2172 4581 
L 2631 4581 
L 2631 1613 
L 3250 1613 
L 3250 1097 
L 2631 1097 
L 2631 0 
L 2069 0 
z
M 2069 1613 
L 2069 3678 
L 634 1613 
L 2069 1613 
z
" transform="scale(0.015625)"/>
       </defs>
       <use xlink:href="#ArialMT-39"/>
       <use xlink:href="#ArialMT-34" transform="translate(55.615234 0)"/>
      </g>
     </g>
    </g>
    <g id="ytick_4">
     <g id="line2d_19">
      <path d="M 35.20625 189.070377 
L 488.19125 189.070377 
" clip-path="url(#p9f30a2af99)" style="fill: none; stroke: #cccccc; stroke-opacity: 0.25; stroke-width: 0.8; stroke-linecap: round"/>
     </g>
     <g id="line2d_20"/>
     <g id="text_11">
      <!-- 96 -->
      <g style="fill: #262626" transform="translate(20.584375 192.649283) scale(0.1 -0.1)">
       <defs>
        <path id="ArialMT-36" d="M 3184 3459 
L 2625 3416 
Q 2550 3747 2413 3897 
Q 2184 4138 1850 4138 
Q 1581 4138 1378 3988 
Q 1113 3794 959 3422 
Q 806 3050 800 2363 
Q 1003 2672 1297 2822 
Q 1591 2972 1913 2972 
Q 2475 2972 2870 2558 
Q 3266 2144 3266 1488 
Q 3266 1056 3080 686 
Q 2894 316 2569 119 
Q 2244 -78 1831 -78 
Q 1128 -78 684 439 
Q 241 956 241 2144 
Q 241 3472 731 4075 
Q 1159 4600 1884 4600 
Q 2425 4600 2770 4297 
Q 3116 3994 3184 3459 
z
M 888 1484 
Q 888 1194 1011 928 
Q 1134 663 1356 523 
Q 1578 384 1822 384 
Q 2178 384 2434 671 
Q 2691 959 2691 1453 
Q 2691 1928 2437 2201 
Q 2184 2475 1800 2475 
Q 1419 2475 1153 2201 
Q 888 1928 888 1484 
z
" transform="scale(0.015625)"/>
       </defs>
       <use xlink:href="#ArialMT-39"/>
       <use xlink:href="#ArialMT-36" transform="translate(55.615234 0)"/>
      </g>
     </g>
    </g>
    <g id="ytick_5">
     <g id="line2d_21">
      <path d="M 35.20625 133.133799 
L 488.19125 133.133799 
" clip-path="url(#p9f30a2af99)" style="fill: none; stroke: #cccccc; stroke-opacity: 0.25; stroke-width: 0.8; stroke-linecap: round"/>
     </g>
     <g id="line2d_22"/>
     <g id="text_12">
      <!-- 98 -->
      <g style="fill: #262626" transform="translate(20.584375 136.712705) scale(0.1 -0.1)">
       <defs>
        <path id="ArialMT-38" d="M 1131 2484 
Q 781 2613 612 2850 
Q 444 3088 444 3419 
Q 444 3919 803 4259 
Q 1163 4600 1759 4600 
Q 2359 4600 2725 4251 
Q 3091 3903 3091 3403 
Q 3091 3084 2923 2848 
Q 2756 2613 2416 2484 
Q 2838 2347 3058 2040 
Q 3278 1734 3278 1309 
Q 3278 722 2862 322 
Q 2447 -78 1769 -78 
Q 1091 -78 675 323 
Q 259 725 259 1325 
Q 259 1772 486 2073 
Q 713 2375 1131 2484 
z
M 1019 3438 
Q 1019 3113 1228 2906 
Q 1438 2700 1772 2700 
Q 2097 2700 2305 2904 
Q 2513 3109 2513 3406 
Q 2513 3716 2298 3927 
Q 2084 4138 1766 4138 
Q 1444 4138 1231 3931 
Q 1019 3725 1019 3438 
z
M 838 1322 
Q 838 1081 952 856 
Q 1066 631 1291 507 
Q 1516 384 1775 384 
Q 2178 384 2440 643 
Q 2703 903 2703 1303 
Q 2703 1709 2433 1975 
Q 2163 2241 1756 2241 
Q 1359 2241 1098 1978 
Q 838 1716 838 1322 
z
" transform="scale(0.015625)"/>
       </defs>
       <use xlink:href="#ArialMT-39"/>
       <use xlink:href="#ArialMT-38" transform="translate(55.615234 0)"/>
      </g>
     </g>
    </g>
    <g id="text_13">
     <!-- Accuracy (%) -->
     <g style="fill: #262626" transform="translate(14.479687 251.099531) rotate(-90) scale(0.1 -0.1)">
      <defs>
       <path id="ArialMT-41" d="M -9 0 
L 1750 4581 
L 2403 4581 
L 4278 0 
L 3588 0 
L 3053 1388 
L 1138 1388 
L 634 0 
L -9 0 
z
M 1313 1881 
L 2866 1881 
L 2388 3150 
Q 2169 3728 2063 4100 
Q 1975 3659 1816 3225 
L 1313 1881 
z
" transform="scale(0.015625)"/>
       <path id="ArialMT-75" d="M 2597 0 
L 2597 488 
Q 2209 -75 1544 -75 
Q 1250 -75 995 37 
Q 741 150 617 320 
Q 494 491 444 738 
Q 409 903 409 1263 
L 409 3319 
L 972 3319 
L 972 1478 
Q 972 1038 1006 884 
Q 1059 663 1231 536 
Q 1403 409 1656 409 
Q 1909 409 2131 539 
Q 2353 669 2445 892 
Q 2538 1116 2538 1541 
L 2538 3319 
L 3100 3319 
L 3100 0 
L 2597 0 
z
" transform="scale(0.015625)"/>
       <path id="ArialMT-72" d="M 416 0 
L 416 3319 
L 922 3319 
L 922 2816 
Q 1116 3169 1280 3281 
Q 1444 3394 1641 3394 
Q 1925 3394 2219 3213 
L 2025 2691 
Q 1819 2813 1613 2813 
Q 1428 2813 1281 2702 
Q 1134 2591 1072 2394 
Q 978 2094 978 1738 
L 978 0 
L 416 0 
z
" transform="scale(0.015625)"/>
       <path id="ArialMT-61" d="M 2588 409 
Q 2275 144 1986 34 
Q 1697 -75 1366 -75 
Q 819 -75 525 192 
Q 231 459 231 875 
Q 231 1119 342 1320 
Q 453 1522 633 1644 
Q 813 1766 1038 1828 
Q 1203 1872 1538 1913 
Q 2219 1994 2541 2106 
Q 2544 2222 2544 2253 
Q 2544 2597 2384 2738 
Q 2169 2928 1744 2928 
Q 1347 2928 1158 2789 
Q 969 2650 878 2297 
L 328 2372 
Q 403 2725 575 2942 
Q 747 3159 1072 3276 
Q 1397 3394 1825 3394 
Q 2250 3394 2515 3294 
Q 2781 3194 2906 3042 
Q 3031 2891 3081 2659 
Q 3109 2516 3109 2141 
L 3109 1391 
Q 3109 606 3145 398 
Q 3181 191 3288 0 
L 2700 0 
Q 2613 175 2588 409 
z
M 2541 1666 
Q 2234 1541 1622 1453 
Q 1275 1403 1131 1340 
Q 988 1278 909 1158 
Q 831 1038 831 891 
Q 831 666 1001 516 
Q 1172 366 1500 366 
Q 1825 366 2078 508 
Q 2331 650 2450 897 
Q 2541 1088 2541 1459 
L 2541 1666 
z
" transform="scale(0.015625)"/>
       <path id="ArialMT-79" d="M 397 -1278 
L 334 -750 
Q 519 -800 656 -800 
Q 844 -800 956 -737 
Q 1069 -675 1141 -563 
Q 1194 -478 1313 -144 
Q 1328 -97 1363 -6 
L 103 3319 
L 709 3319 
L 1400 1397 
Q 1534 1031 1641 628 
Q 1738 1016 1872 1384 
L 2581 3319 
L 3144 3319 
L 1881 -56 
Q 1678 -603 1566 -809 
Q 1416 -1088 1222 -1217 
Q 1028 -1347 759 -1347 
Q 597 -1347 397 -1278 
z
" transform="scale(0.015625)"/>
       <path id="ArialMT-20" transform="scale(0.015625)"/>
       <path id="ArialMT-28" d="M 1497 -1347 
Q 1031 -759 709 28 
Q 388 816 388 1659 
Q 388 2403 628 3084 
Q 909 3875 1497 4659 
L 1900 4659 
Q 1522 4009 1400 3731 
Q 1209 3300 1100 2831 
Q 966 2247 966 1656 
Q 966 153 1900 -1347 
L 1497 -1347 
z
" transform="scale(0.015625)"/>
       <path id="ArialMT-25" d="M 372 3481 
Q 372 3972 619 4315 
Q 866 4659 1334 4659 
Q 1766 4659 2048 4351 
Q 2331 4044 2331 3447 
Q 2331 2866 2045 2552 
Q 1759 2238 1341 2238 
Q 925 2238 648 2547 
Q 372 2856 372 3481 
z
M 1350 4272 
Q 1141 4272 1002 4090 
Q 863 3909 863 3425 
Q 863 2984 1003 2804 
Q 1144 2625 1350 2625 
Q 1563 2625 1702 2806 
Q 1841 2988 1841 3469 
Q 1841 3913 1700 4092 
Q 1559 4272 1350 4272 
z
M 1353 -169 
L 3859 4659 
L 4316 4659 
L 1819 -169 
L 1353 -169 
z
M 3334 1075 
Q 3334 1569 3581 1911 
Q 3828 2253 4300 2253 
Q 4731 2253 5014 1945 
Q 5297 1638 5297 1041 
Q 5297 459 5011 145 
Q 4725 -169 4303 -169 
Q 3888 -169 3611 142 
Q 3334 453 3334 1075 
z
M 4316 1866 
Q 4103 1866 3964 1684 
Q 3825 1503 3825 1019 
Q 3825 581 3965 400 
Q 4106 219 4313 219 
Q 4528 219 4667 400 
Q 4806 581 4806 1063 
Q 4806 1506 4665 1686 
Q 4525 1866 4316 1866 
z
" transform="scale(0.015625)"/>
       <path id="ArialMT-29" d="M 791 -1347 
L 388 -1347 
Q 1322 153 1322 1656 
Q 1322 2244 1188 2822 
Q 1081 3291 891 3722 
Q 769 4003 388 4659 
L 791 4659 
Q 1378 3875 1659 3084 
Q 1900 2403 1900 1659 
Q 1900 816 1576 28 
Q 1253 -759 791 -1347 
z
" transform="scale(0.015625)"/>
      </defs>
      <use xlink:href="#ArialMT-41"/>
      <use xlink:href="#ArialMT-63" transform="translate(66.699219 0)"/>
      <use xlink:href="#ArialMT-63" transform="translate(116.699219 0)"/>
      <use xlink:href="#ArialMT-75" transform="translate(166.699219 0)"/>
      <use xlink:href="#ArialMT-72" transform="translate(222.314453 0)"/>
      <use xlink:href="#ArialMT-61" transform="translate(255.615234 0)"/>
      <use xlink:href="#ArialMT-63" transform="translate(311.230469 0)"/>
      <use xlink:href="#ArialMT-79" transform="translate(361.230469 0)"/>
      <use xlink:href="#ArialMT-20" transform="translate(411.230469 0)"/>
      <use xlink:href="#ArialMT-28" transform="translate(439.013672 0)"/>
      <use xlink:href="#ArialMT-25" transform="translate(472.314453 0)"/>
      <use xlink:href="#ArialMT-29" transform="translate(561.230469 0)"/>
     </g>
    </g>
   </g>
   <g id="line2d_23">
    <path d="M 35.20625 346.252159 
L 49.362031 267.661268 
L 63.517813 235.777419 
L 77.673594 197.18118 
L 91.829375 218.157397 
L 105.985156 194.104669 
L 120.140938 184.59545 
L 134.296719 160.542722 
L 148.4525 161.941136 
L 162.608281 161.941136 
L 176.764062 168.373843 
L 190.919844 157.186527 
L 205.075625 165.297331 
L 219.231406 139.566506 
L 233.387188 138.168091 
L 247.542969 149.355407 
L 261.69875 138.168091 
L 275.854531 141.244603 
L 290.010312 126.701093 
L 304.166094 149.355407 
L 318.321875 134.811896 
L 332.477656 141.244603 
L 346.633438 145.999212 
L 360.789219 150.753821 
L 374.945 142.9227 
L 389.100781 133.133799 
L 403.256563 128.37919 
L 417.412344 141.244603 
L 431.568125 139.566506 
L 445.723906 133.133799 
L 459.879687 128.37919 
L 474.035469 121.946484 
L 488.19125 150.753821 
" clip-path="url(#p9f30a2af99)" style="fill: none; stroke: #2f6f8f; stroke-width: 2; stroke-linecap: round"/>
   </g>
   <g id="line2d_24">
    <path d="M 35.20625 109.081071 
L 49.362031 115.513777 
L 63.517813 134.811896 
L 77.673594 134.811896 
L 91.829375 134.811896 
L 105.985156 115.513777 
L 120.140938 115.513777 
L 134.296719 115.513777 
L 148.4525 109.081071 
L 162.608281 115.513777 
L 176.764062 109.081071 
L 190.919844 109.081071 
L 205.075625 109.081071 
L 219.231406 102.928047 
L 233.387188 102.928047 
L 247.542969 102.928047 
L 261.69875 102.928047 
L 275.854531 96.495341 
L 290.010312 96.495341 
L 304.166094 96.495341 
L 318.321875 96.495341 
L 332.477656 96.495341 
L 346.633438 96.495341 
L 360.789219 96.495341 
L 374.945 96.495341 
L 389.100781 96.495341 
L 403.256563 96.495341 
L 417.412344 96.495341 
L 431.568125 96.495341 
L 445.723906 96.495341 
L 459.879687 102.928047 
L 474.035469 102.928047 
L 488.19125 96.495341 
" clip-path="url(#p9f30a2af99)" style="fill: none; stroke-dasharray: 7.4,3.2; stroke-dashoffset: 0; stroke: #7fa7c0; stroke-width: 2"/>
   </g>
   <g id="line2d_25">
    <path d="M 35.20625 306.956713 
L 49.362031 283.230282 
L 63.517813 233.539956 
L 77.673594 217.038665 
L 91.829375 203.147749 
L 105.985156 198.952505 
L 120.140938 179.747614 
L 134.296719 169.026436 
L 148.4525 161.474998 
L 162.608281 164.085372 
L 176.764062 162.500502 
L 190.919844 163.619234 
L 205.075625 154.016788 
L 219.231406 147.677309 
L 233.387188 142.363334 
L 247.542969 141.897196 
L 261.69875 142.9227 
L 275.854531 135.371262 
L 290.010312 139.100367 
L 304.166094 136.956132 
L 318.321875 141.803969 
L 332.477656 140.685237 
L 346.633438 145.999212 
L 360.789219 146.558578 
L 374.945 142.270107 
L 389.100781 134.811896 
L 403.256563 134.252531 
L 417.412344 136.396766 
L 431.568125 137.981636 
L 445.723906 133.693165 
L 459.879687 127.819824 
L 474.035469 133.693165 
L 488.19125 136.350152 
" clip-path="url(#p9f30a2af99)" style="fill: none; stroke: #2f6f8f; stroke-opacity: 0.5; stroke-width: 1.2; stroke-linecap: round"/>
   </g>
   <g id="line2d_26">
    <path d="M 35.20625 112.297424 
L 49.362031 119.802248 
L 63.517813 128.37919 
L 77.673594 134.811896 
L 91.829375 128.37919 
L 105.985156 121.946484 
L 120.140938 115.513777 
L 134.296719 113.369542 
L 148.4525 113.369542 
L 162.608281 111.225306 
L 176.764062 111.225306 
L 190.919844 109.081071 
L 205.075625 107.030063 
L 219.231406 104.979055 
L 233.387188 102.928047 
L 247.542969 102.928047 
L 261.69875 100.783812 
L 275.854531 98.639576 
L 290.010312 96.495341 
L 304.166094 96.495341 
L 318.321875 96.495341 
L 332.477656 96.495341 
L 346.633438 96.495341 
L 360.789219 96.495341 
L 374.945 96.495341 
L 389.100781 96.495341 
L 403.256563 96.495341 
L 417.412344 96.495341 
L 431.568125 96.495341 
L 445.723906 98.639576 
L 459.879687 100.783812 
L 474.035469 100.783812 
L 488.19125 99.711694 
" clip-path="url(#p9f30a2af99)" style="fill: none; stroke-dasharray: 4.44,1.92; stroke-dashoffset: 0; stroke: #7fa7c0; stroke-opacity: 0.5; stroke-width: 1.2"/>
   </g>
   <g id="patch_3">
    <path d="M 35.20625 358.74 
L 35.20625 84.0075 
" style="fill: none; stroke: #cccccc; stroke-linejoin: miter; stroke-linecap: square"/>
   </g>
   <g id="patch_4">
    <path d="M 488.19125 358.74 
L 488.19125 84.0075 
" style="fill: none; stroke: #cccccc; stroke-linejoin: miter; stroke-linecap: square"/>
   </g>
   <g id="patch_5">
    <path d="M 35.20625 358.74 
L 488.19125 358.74 
" style="fill: none; stroke: #cccccc; stroke-linejoin: miter; stroke-linecap: square"/>
   </g>
   <g id="patch_6">
    <path d="M 35.20625 84.0075 
L 488.19125 84.0075 
" style="fill: none; stroke: #cccccc; stroke-linejoin: miter; stroke-linecap: square"/>
   </g>
   <g id="text_14">
    <!-- Not Bignay Classifier Accuracy Convergence -->
    <g style="fill: #262626" transform="translate(143.925703 78.0075) scale(0.11 -0.11)">
     <defs>
      <path id="Arial-BoldMT-4e" d="M 475 0 
L 475 4581 
L 1375 4581 
L 3250 1522 
L 3250 4581 
L 4109 4581 
L 4109 0 
L 3181 0 
L 1334 2988 
L 1334 0 
L 475 0 
z
" transform="scale(0.015625)"/>
      <path id="Arial-BoldMT-6f" d="M 256 1706 
Q 256 2144 472 2553 
Q 688 2963 1083 3178 
Q 1478 3394 1966 3394 
Q 2719 3394 3200 2905 
Q 3681 2416 3681 1669 
Q 3681 916 3195 420 
Q 2709 -75 1972 -75 
Q 1516 -75 1102 131 
Q 688 338 472 736 
Q 256 1134 256 1706 
z
M 1156 1659 
Q 1156 1166 1390 903 
Q 1625 641 1969 641 
Q 2313 641 2545 903 
Q 2778 1166 2778 1666 
Q 2778 2153 2545 2415 
Q 2313 2678 1969 2678 
Q 1625 2678 1390 2415 
Q 1156 2153 1156 1659 
z
" transform="scale(0.015625)"/>
      <path id="Arial-BoldMT-74" d="M 1981 3319 
L 1981 2619 
L 1381 2619 
L 1381 1281 
Q 1381 875 1398 808 
Q 1416 741 1477 697 
Q 1538 653 1625 653 
Q 1747 653 1978 738 
L 2053 56 
Q 1747 -75 1359 -75 
Q 1122 -75 931 4 
Q 741 84 652 211 
Q 563 338 528 553 
Q 500 706 500 1172 
L 500 2619 
L 97 2619 
L 97 3319 
L 500 3319 
L 500 3978 
L 1381 4491 
L 1381 3319 
L 1981 3319 
z
" transform="scale(0.015625)"/>
      <path id="Arial-BoldMT-20" transform="scale(0.015625)"/>
      <path id="Arial-BoldMT-42" d="M 469 4581 
L 2300 4581 
Q 2844 4581 3111 4536 
Q 3378 4491 3589 4347 
Q 3800 4203 3940 3964 
Q 4081 3725 4081 3428 
Q 4081 3106 3907 2837 
Q 3734 2569 3438 2434 
Q 3856 2313 4081 2019 
Q 4306 1725 4306 1328 
Q 4306 1016 4161 720 
Q 4016 425 3764 248 
Q 3513 72 3144 31 
Q 2913 6 2028 0 
L 469 0 
L 469 4581 
z
M 1394 3819 
L 1394 2759 
L 2000 2759 
Q 2541 2759 2672 2775 
Q 2909 2803 3045 2939 
Q 3181 3075 3181 3297 
Q 3181 3509 3064 3642 
Q 2947 3775 2716 3803 
Q 2578 3819 1925 3819 
L 1394 3819 
z
M 1394 1997 
L 1394 772 
L 2250 772 
Q 2750 772 2884 800 
Q 3091 838 3220 983 
Q 3350 1128 3350 1372 
Q 3350 1578 3250 1722 
Q 3150 1866 2961 1931 
Q 2772 1997 2141 1997 
L 1394 1997 
z
" transform="scale(0.015625)"/>
      <path id="Arial-BoldMT-69" d="M 459 3769 
L 459 4581 
L 1338 4581 
L 1338 3769 
L 459 3769 
z
M 459 0 
L 459 3319 
L 1338 3319 
L 1338 0 
L 459 0 
z
" transform="scale(0.015625)"/>
      <path id="Arial-BoldMT-67" d="M 378 -219 
L 1381 -341 
Q 1406 -516 1497 -581 
Q 1622 -675 1891 -675 
Q 2234 -675 2406 -572 
Q 2522 -503 2581 -350 
Q 2622 -241 2622 53 
L 2622 538 
Q 2228 0 1628 0 
Q 959 0 569 566 
Q 263 1013 263 1678 
Q 263 2513 664 2953 
Q 1066 3394 1663 3394 
Q 2278 3394 2678 2853 
L 2678 3319 
L 3500 3319 
L 3500 341 
Q 3500 -247 3403 -537 
Q 3306 -828 3131 -993 
Q 2956 -1159 2664 -1253 
Q 2372 -1347 1925 -1347 
Q 1081 -1347 728 -1058 
Q 375 -769 375 -325 
Q 375 -281 378 -219 
z
M 1163 1728 
Q 1163 1200 1367 954 
Q 1572 709 1872 709 
Q 2194 709 2416 961 
Q 2638 1213 2638 1706 
Q 2638 2222 2425 2472 
Q 2213 2722 1888 2722 
Q 1572 2722 1367 2476 
Q 1163 2231 1163 1728 
z
" transform="scale(0.015625)"/>
      <path id="Arial-BoldMT-6e" d="M 3478 0 
L 2600 0 
L 2600 1694 
Q 2600 2231 2544 2389 
Q 2488 2547 2361 2634 
Q 2234 2722 2056 2722 
Q 1828 2722 1647 2597 
Q 1466 2472 1398 2265 
Q 1331 2059 1331 1503 
L 1331 0 
L 453 0 
L 453 3319 
L 1269 3319 
L 1269 2831 
Q 1703 3394 2363 3394 
Q 2653 3394 2893 3289 
Q 3134 3184 3257 3021 
Q 3381 2859 3429 2653 
Q 3478 2447 3478 2063 
L 3478 0 
z
" transform="scale(0.015625)"/>
      <path id="Arial-BoldMT-61" d="M 1116 2306 
L 319 2450 
Q 453 2931 781 3162 
Q 1109 3394 1756 3394 
Q 2344 3394 2631 3255 
Q 2919 3116 3036 2902 
Q 3153 2688 3153 2116 
L 3144 1091 
Q 3144 653 3186 445 
Q 3228 238 3344 0 
L 2475 0 
Q 2441 88 2391 259 
Q 2369 338 2359 363 
Q 2134 144 1878 34 
Q 1622 -75 1331 -75 
Q 819 -75 523 203 
Q 228 481 228 906 
Q 228 1188 362 1408 
Q 497 1628 739 1745 
Q 981 1863 1438 1950 
Q 2053 2066 2291 2166 
L 2291 2253 
Q 2291 2506 2166 2614 
Q 2041 2722 1694 2722 
Q 1459 2722 1328 2630 
Q 1197 2538 1116 2306 
z
M 2291 1594 
Q 2122 1538 1756 1459 
Q 1391 1381 1278 1306 
Q 1106 1184 1106 997 
Q 1106 813 1243 678 
Q 1381 544 1594 544 
Q 1831 544 2047 700 
Q 2206 819 2256 991 
Q 2291 1103 2291 1419 
L 2291 1594 
z
" transform="scale(0.015625)"/>
      <path id="Arial-BoldMT-79" d="M 44 3319 
L 978 3319 
L 1772 963 
L 2547 3319 
L 3456 3319 
L 2284 125 
L 2075 -453 
Q 1959 -744 1854 -897 
Q 1750 -1050 1614 -1145 
Q 1478 -1241 1279 -1294 
Q 1081 -1347 831 -1347 
Q 578 -1347 334 -1294 
L 256 -606 
Q 463 -647 628 -647 
Q 934 -647 1081 -467 
Q 1228 -288 1306 -9 
L 44 3319 
z
" transform="scale(0.015625)"/>
      <path id="Arial-BoldMT-43" d="M 3397 1684 
L 4294 1400 
Q 4088 650 3608 286 
Q 3128 -78 2391 -78 
Q 1478 -78 890 545 
Q 303 1169 303 2250 
Q 303 3394 893 4026 
Q 1484 4659 2447 4659 
Q 3288 4659 3813 4163 
Q 4125 3869 4281 3319 
L 3366 3100 
Q 3284 3456 3026 3662 
Q 2769 3869 2400 3869 
Q 1891 3869 1573 3503 
Q 1256 3138 1256 2319 
Q 1256 1450 1568 1081 
Q 1881 713 2381 713 
Q 2750 713 3015 947 
Q 3281 1181 3397 1684 
z
" transform="scale(0.015625)"/>
      <path id="Arial-BoldMT-6c" d="M 459 0 
L 459 4581 
L 1338 4581 
L 1338 0 
L 459 0 
z
" transform="scale(0.015625)"/>
      <path id="Arial-BoldMT-73" d="M 150 947 
L 1031 1081 
Q 1088 825 1259 692 
Q 1431 559 1741 559 
Q 2081 559 2253 684 
Q 2369 772 2369 919 
Q 2369 1019 2306 1084 
Q 2241 1147 2013 1200 
Q 950 1434 666 1628 
Q 272 1897 272 2375 
Q 272 2806 612 3100 
Q 953 3394 1669 3394 
Q 2350 3394 2681 3172 
Q 3013 2950 3138 2516 
L 2309 2363 
Q 2256 2556 2107 2659 
Q 1959 2763 1684 2763 
Q 1338 2763 1188 2666 
Q 1088 2597 1088 2488 
Q 1088 2394 1175 2328 
Q 1294 2241 1995 2081 
Q 2697 1922 2975 1691 
Q 3250 1456 3250 1038 
Q 3250 581 2869 253 
Q 2488 -75 1741 -75 
Q 1063 -75 667 200 
Q 272 475 150 947 
z
" transform="scale(0.015625)"/>
      <path id="Arial-BoldMT-66" d="M 75 3319 
L 563 3319 
L 563 3569 
Q 563 3988 652 4194 
Q 741 4400 980 4529 
Q 1219 4659 1584 4659 
Q 1959 4659 2319 4547 
L 2200 3934 
Q 1991 3984 1797 3984 
Q 1606 3984 1523 3895 
Q 1441 3806 1441 3553 
L 1441 3319 
L 2097 3319 
L 2097 2628 
L 1441 2628 
L 1441 0 
L 563 0 
L 563 2628 
L 75 2628 
L 75 3319 
z
" transform="scale(0.015625)"/>
      <path id="Arial-BoldMT-65" d="M 2381 1056 
L 3256 909 
Q 3088 428 2723 176 
Q 2359 -75 1813 -75 
Q 947 -75 531 491 
Q 203 944 203 1634 
Q 203 2459 634 2926 
Q 1066 3394 1725 3394 
Q 2466 3394 2894 2905 
Q 3322 2416 3303 1406 
L 1103 1406 
Q 1113 1016 1316 798 
Q 1519 581 1822 581 
Q 2028 581 2168 693 
Q 2309 806 2381 1056 
z
M 2431 1944 
Q 2422 2325 2234 2523 
Q 2047 2722 1778 2722 
Q 1491 2722 1303 2513 
Q 1116 2303 1119 1944 
L 2431 1944 
z
" transform="scale(0.015625)"/>
      <path id="Arial-BoldMT-72" d="M 1300 0 
L 422 0 
L 422 3319 
L 1238 3319 
L 1238 2847 
Q 1447 3181 1614 3287 
Q 1781 3394 1994 3394 
Q 2294 3394 2572 3228 
L 2300 2463 
Q 2078 2606 1888 2606 
Q 1703 2606 1575 2504 
Q 1447 2403 1373 2137 
Q 1300 1872 1300 1025 
L 1300 0 
z
" transform="scale(0.015625)"/>
      <path id="Arial-BoldMT-41" d="M 4597 0 
L 3591 0 
L 3191 1041 
L 1359 1041 
L 981 0 
L 0 0 
L 1784 4581 
L 2763 4581 
L 4597 0 
z
M 2894 1813 
L 2263 3513 
L 1644 1813 
L 2894 1813 
z
" transform="scale(0.015625)"/>
      <path id="Arial-BoldMT-63" d="M 3353 2338 
L 2488 2181 
Q 2444 2441 2289 2572 
Q 2134 2703 1888 2703 
Q 1559 2703 1364 2476 
Q 1169 2250 1169 1719 
Q 1169 1128 1367 884 
Q 1566 641 1900 641 
Q 2150 641 2309 783 
Q 2469 925 2534 1272 
L 3397 1125 
Q 3263 531 2881 228 
Q 2500 -75 1859 -75 
Q 1131 -75 698 384 
Q 266 844 266 1656 
Q 266 2478 700 2936 
Q 1134 3394 1875 3394 
Q 2481 3394 2839 3133 
Q 3197 2872 3353 2338 
z
" transform="scale(0.015625)"/>
      <path id="Arial-BoldMT-75" d="M 2644 0 
L 2644 497 
Q 2463 231 2167 78 
Q 1872 -75 1544 -75 
Q 1209 -75 943 72 
Q 678 219 559 484 
Q 441 750 441 1219 
L 441 3319 
L 1319 3319 
L 1319 1794 
Q 1319 1094 1367 936 
Q 1416 778 1544 686 
Q 1672 594 1869 594 
Q 2094 594 2272 717 
Q 2450 841 2515 1023 
Q 2581 1206 2581 1919 
L 2581 3319 
L 3459 3319 
L 3459 0 
L 2644 0 
z
" transform="scale(0.015625)"/>
      <path id="Arial-BoldMT-76" d="M 1372 0 
L 34 3319 
L 956 3319 
L 1581 1625 
L 1763 1059 
Q 1834 1275 1853 1344 
Q 1897 1484 1947 1625 
L 2578 3319 
L 3481 3319 
L 2163 0 
L 1372 0 
z
" transform="scale(0.015625)"/>
     </defs>
     <use xlink:href="#Arial-BoldMT-4e"/>
     <use xlink:href="#Arial-BoldMT-6f" transform="translate(72.216797 0)"/>
     <use xlink:href="#Arial-BoldMT-74" transform="translate(133.300781 0)"/>
     <use xlink:href="#Arial-BoldMT-20" transform="translate(166.601562 0)"/>
     <use xlink:href="#Arial-BoldMT-42" transform="translate(194.384766 0)"/>
     <use xlink:href="#Arial-BoldMT-69" transform="translate(266.601562 0)"/>
     <use xlink:href="#Arial-BoldMT-67" transform="translate(294.384766 0)"/>
     <use xlink:href="#Arial-BoldMT-6e" transform="translate(355.46875 0)"/>
     <use xlink:href="#Arial-BoldMT-61" transform="translate(416.552734 0)"/>
     <use xlink:href="#Arial-BoldMT-79" transform="translate(472.167969 0)"/>
     <use xlink:href="#Arial-BoldMT-20" transform="translate(527.783203 0)"/>
     <use xlink:href="#Arial-BoldMT-43" transform="translate(555.566406 0)"/>
     <use xlink:href="#Arial-BoldMT-6c" transform="translate(627.783203 0)"/>
     <use xlink:href="#Arial-BoldMT-61" transform="translate(655.566406 0)"/>
     <use xlink:href="#Arial-BoldMT-73" transform="translate(711.181641 0)"/>
     <use xlink:href="#Arial-BoldMT-73" transform="translate(766.796875 0)"/>
     <use xlink:href="#Arial-BoldMT-69" transform="translate(822.412109 0)"/>
     <use xlink:href="#Arial-BoldMT-66" transform="translate(850.195312 0)"/>
     <use xlink:href="#Arial-BoldMT-69" transform="translate(883.496094 0)"/>
     <use xlink:href="#Arial-BoldMT-65" transform="translate(911.279297 0)"/>
     <use xlink:href="#Arial-BoldMT-72" transform="translate(966.894531 0)"/>
     <use xlink:href="#Arial-BoldMT-20" transform="translate(1005.810547 0)"/>
     <use xlink:href="#Arial-BoldMT-41" transform="translate(1029.84375 0)"/>
     <use xlink:href="#Arial-BoldMT-63" transform="translate(1102.060547 0)"/>
     <use xlink:href="#Arial-BoldMT-63" transform="translate(1157.675781 0)"/>
     <use xlink:href="#Arial-BoldMT-75" transform="translate(1213.291016 0)"/>
     <use xlink:href="#Arial-BoldMT-72" transform="translate(1274.375 0)"/>
     <use xlink:href="#Arial-BoldMT-61" transform="translate(1313.291016 0)"/>
     <use xlink:href="#Arial-BoldMT-63" transform="translate(1368.90625 0)"/>
     <use xlink:href="#Arial-BoldMT-79" transform="translate(1424.521484 0)"/>
     <use xlink:href="#Arial-BoldMT-20" transform="translate(1480.136719 0)"/>
     <use xlink:href="#Arial-BoldMT-43" transform="translate(1507.919922 0)"/>
     <use xlink:href="#Arial-BoldMT-6f" transform="translate(1580.136719 0)"/>
     <use xlink:href="#Arial-BoldMT-6e" transform="translate(1641.220703 0)"/>
     <use xlink:href="#Arial-BoldMT-76" transform="translate(1702.304688 0)"/>
     <use xlink:href="#Arial-BoldMT-65" transform="translate(1757.919922 0)"/>
     <use xlink:href="#Arial-BoldMT-72" transform="translate(1813.535156 0)"/>
     <use xlink:href="#Arial-BoldMT-67" transform="translate(1852.451172 0)"/>
     <use xlink:href="#Arial-BoldMT-65" transform="translate(1913.535156 0)"/>
     <use xlink:href="#Arial-BoldMT-6e" transform="translate(1969.150391 0)"/>
     <use xlink:href="#Arial-BoldMT-63" transform="translate(2030.234375 0)"/>
     <use xlink:href="#Arial-BoldMT-65" transform="translate(2085.849609 0)"/>
    </g>
   </g>
   <g id="legend_1">
    <g id="patch_7">
     <path d="M 387.76625 354.74 
L 482.59125 354.74 
Q 484.19125 354.74 484.19125 353.14 
L 484.19125 331.12 
Q 484.19125 329.52 482.59125 329.52 
L 387.76625 329.52 
Q 386.16625 329.52 386.16625 331.12 
L 386.16625 353.14 
Q 386.16625 354.74 387.76625 354.74 
z
" style="fill: #ffffff; opacity: 0.8; stroke: #cccccc; stroke-linejoin: miter"/>
    </g>
    <g id="line2d_27">
     <path d="M 389.36625 335.64625 
L 397.36625 335.64625 
L 405.36625 335.64625 
" style="fill: none; stroke: #2f6f8f; stroke-width: 2; stroke-linecap: round"/>
    </g>
    <g id="text_15">
     <!-- Train Accuracy -->
     <g style="fill: #262626" transform="translate(411.76625 338.44625) scale(0.08 -0.08)">
      <defs>
       <path id="ArialMT-54" d="M 1659 0 
L 1659 4041 
L 150 4041 
L 150 4581 
L 3781 4581 
L 3781 4041 
L 2266 4041 
L 2266 0 
L 1659 0 
z
" transform="scale(0.015625)"/>
       <path id="ArialMT-69" d="M 425 3934 
L 425 4581 
L 988 4581 
L 988 3934 
L 425 3934 
z
M 425 0 
L 425 3319 
L 988 3319 
L 988 0 
L 425 0 
z
" transform="scale(0.015625)"/>
       <path id="ArialMT-6e" d="M 422 0 
L 422 3319 
L 928 3319 
L 928 2847 
Q 1294 3394 1984 3394 
Q 2284 3394 2536 3286 
Q 2788 3178 2913 3003 
Q 3038 2828 3088 2588 
Q 3119 2431 3119 2041 
L 3119 0 
L 2556 0 
L 2556 2019 
Q 2556 2363 2490 2533 
Q 2425 2703 2258 2804 
Q 2091 2906 1866 2906 
Q 1506 2906 1245 2678 
Q 984 2450 984 1813 
L 984 0 
L 422 0 
z
" transform="scale(0.015625)"/>
      </defs>
      <use xlink:href="#ArialMT-54"/>
      <use xlink:href="#ArialMT-72" transform="translate(57.333984 0)"/>
      <use xlink:href="#ArialMT-61" transform="translate(90.634766 0)"/>
      <use xlink:href="#ArialMT-69" transform="translate(146.25 0)"/>
      <use xlink:href="#ArialMT-6e" transform="translate(168.466797 0)"/>
      <use xlink:href="#ArialMT-20" transform="translate(224.082031 0)"/>
      <use xlink:href="#ArialMT-41" transform="translate(246.365234 0)"/>
      <use xlink:href="#ArialMT-63" transform="translate(313.064453 0)"/>
      <use xlink:href="#ArialMT-63" transform="translate(363.064453 0)"/>
      <use xlink:href="#ArialMT-75" transform="translate(413.064453 0)"/>
      <use xlink:href="#ArialMT-72" transform="translate(468.679688 0)"/>
      <use xlink:href="#ArialMT-61" transform="translate(501.980469 0)"/>
      <use xlink:href="#ArialMT-63" transform="translate(557.595703 0)"/>
      <use xlink:href="#ArialMT-79" transform="translate(607.595703 0)"/>
     </g>
    </g>
    <g id="line2d_28">
     <path d="M 389.36625 347.05625 
L 397.36625 347.05625 
L 405.36625 347.05625 
" style="fill: none; stroke-dasharray: 7.4,3.2; stroke-dashoffset: 0; stroke: #7fa7c0; stroke-width: 2"/>
    </g>
    <g id="text_16">
     <!-- Validation Accuracy -->
     <g style="fill: #262626" transform="translate(411.76625 349.85625) scale(0.08 -0.08)">
      <defs>
       <path id="ArialMT-56" d="M 1803 0 
L 28 4581 
L 684 4581 
L 1875 1253 
Q 2019 853 2116 503 
Q 2222 878 2363 1253 
L 3600 4581 
L 4219 4581 
L 2425 0 
L 1803 0 
z
" transform="scale(0.015625)"/>
       <path id="ArialMT-6c" d="M 409 0 
L 409 4581 
L 972 4581 
L 972 0 
L 409 0 
z
" transform="scale(0.015625)"/>
       <path id="ArialMT-64" d="M 2575 0 
L 2575 419 
Q 2259 -75 1647 -75 
Q 1250 -75 917 144 
Q 584 363 401 755 
Q 219 1147 219 1656 
Q 219 2153 384 2558 
Q 550 2963 881 3178 
Q 1213 3394 1622 3394 
Q 1922 3394 2156 3267 
Q 2391 3141 2538 2938 
L 2538 4581 
L 3097 4581 
L 3097 0 
L 2575 0 
z
M 797 1656 
Q 797 1019 1065 703 
Q 1334 388 1700 388 
Q 2069 388 2326 689 
Q 2584 991 2584 1609 
Q 2584 2291 2321 2609 
Q 2059 2928 1675 2928 
Q 1300 2928 1048 2622 
Q 797 2316 797 1656 
z
" transform="scale(0.015625)"/>
       <path id="ArialMT-74" d="M 1650 503 
L 1731 6 
Q 1494 -44 1306 -44 
Q 1000 -44 831 53 
Q 663 150 594 308 
Q 525 466 525 972 
L 525 2881 
L 113 2881 
L 113 3319 
L 525 3319 
L 525 4141 
L 1084 4478 
L 1084 3319 
L 1650 3319 
L 1650 2881 
L 1084 2881 
L 1084 941 
Q 1084 700 1114 631 
Q 1144 563 1211 522 
Q 1278 481 1403 481 
Q 1497 481 1650 503 
z
" transform="scale(0.015625)"/>
      </defs>
      <use xlink:href="#ArialMT-56"/>
      <use xlink:href="#ArialMT-61" transform="translate(59.324219 0)"/>
      <use xlink:href="#ArialMT-6c" transform="translate(114.939453 0)"/>
      <use xlink:href="#ArialMT-69" transform="translate(137.15625 0)"/>
      <use xlink:href="#ArialMT-64" transform="translate(159.373047 0)"/>
      <use xlink:href="#ArialMT-61" transform="translate(214.988281 0)"/>
      <use xlink:href="#ArialMT-74" transform="translate(270.603516 0)"/>
      <use xlink:href="#ArialMT-69" transform="translate(298.386719 0)"/>
      <use xlink:href="#ArialMT-6f" transform="translate(320.603516 0)"/>
      <use xlink:href="#ArialMT-6e" transform="translate(376.21875 0)"/>
      <use xlink:href="#ArialMT-20" transform="translate(431.833984 0)"/>
      <use xlink:href="#ArialMT-41" transform="translate(454.117188 0)"/>
      <use xlink:href="#ArialMT-63" transform="translate(520.816406 0)"/>
      <use xlink:href="#ArialMT-63" transform="translate(570.816406 0)"/>
      <use xlink:href="#ArialMT-75" transform="translate(620.816406 0)"/>
      <use xlink:href="#ArialMT-72" transform="translate(676.431641 0)"/>
      <use xlink:href="#ArialMT-61" transform="translate(709.732422 0)"/>
      <use xlink:href="#ArialMT-63" transform="translate(765.347656 0)"/>
      <use xlink:href="#ArialMT-79" transform="translate(815.347656 0)"/>
     </g>
    </g>
   </g>
  </g>
  <g id="axes_2">
   <g id="patch_8">
    <path d="M 540.60125 358.74 
L 993.58625 358.74 
L 993.58625 84.0075 
L 540.60125 84.0075 
z
" style="fill: #ffffff"/>
   </g>
   <g id="matplotlib.axis_3">
    <g id="xtick_7">
     <g id="line2d_29">
      <path d="M 597.224375 358.74 
L 597.224375 84.0075 
" clip-path="url(#pd0e07d87d8)" style="fill: none; stroke: #cccccc; stroke-opacity: 0.25; stroke-width: 0.8; stroke-linecap: round"/>
     </g>
     <g id="line2d_30"/>
     <g id="text_17">
      <!-- 5 -->
      <g style="fill: #262626" transform="translate(594.443906 369.397812) scale(0.1 -0.1)">
       <use xlink:href="#ArialMT-35"/>
      </g>
     </g>
    </g>
    <g id="xtick_8">
     <g id="line2d_31">
      <path d="M 668.003281 358.74 
L 668.003281 84.0075 
" clip-path="url(#pd0e07d87d8)" style="fill: none; stroke: #cccccc; stroke-opacity: 0.25; stroke-width: 0.8; stroke-linecap: round"/>
     </g>
     <g id="line2d_32"/>
     <g id="text_18">
      <!-- 10 -->
      <g style="fill: #262626" transform="translate(662.442344 369.397812) scale(0.1 -0.1)">
       <use xlink:href="#ArialMT-31"/>
       <use xlink:href="#ArialMT-30" transform="translate(55.615234 0)"/>
      </g>
     </g>
    </g>
    <g id="xtick_9">
     <g id="line2d_33">
      <path d="M 738.782188 358.74 
L 738.782188 84.0075 
" clip-path="url(#pd0e07d87d8)" style="fill: none; stroke: #cccccc; stroke-opacity: 0.25; stroke-width: 0.8; stroke-linecap: round"/>
     </g>
     <g id="line2d_34"/>
     <g id="text_19">
      <!-- 15 -->
      <g style="fill: #262626" transform="translate(733.22125 369.397812) scale(0.1 -0.1)">
       <use xlink:href="#ArialMT-31"/>
       <use xlink:href="#ArialMT-35" transform="translate(55.615234 0)"/>
      </g>
     </g>
    </g>
    <g id="xtick_10">
     <g id="line2d_35">
      <path d="M 809.561094 358.74 
L 809.561094 84.0075 
" clip-path="url(#pd0e07d87d8)" style="fill: none; stroke: #cccccc; stroke-opacity: 0.25; stroke-width: 0.8; stroke-linecap: round"/>
     </g>
     <g id="line2d_36"/>
     <g id="text_20">
      <!-- 20 -->
      <g style="fill: #262626" transform="translate(804.000156 369.397812) scale(0.1 -0.1)">
       <use xlink:href="#ArialMT-32"/>
       <use xlink:href="#ArialMT-30" transform="translate(55.615234 0)"/>
      </g>
     </g>
    </g>
    <g id="xtick_11">
     <g id="line2d_37">
      <path d="M 880.34 358.74 
L 880.34 84.0075 
" clip-path="url(#pd0e07d87d8)" style="fill: none; stroke: #cccccc; stroke-opacity: 0.25; stroke-width: 0.8; stroke-linecap: round"/>
     </g>
     <g id="line2d_38"/>
     <g id="text_21">
      <!-- 25 -->
      <g style="fill: #262626" transform="translate(874.779063 369.397812) scale(0.1 -0.1)">
       <use xlink:href="#ArialMT-32"/>
       <use xlink:href="#ArialMT-35" transform="translate(55.615234 0)"/>
      </g>
     </g>
    </g>
    <g id="xtick_12">
     <g id="line2d_39">
      <path d="M 951.118906 358.74 
L 951.118906 84.0075 
" clip-path="url(#pd0e07d87d8)" style="fill: none; stroke: #cccccc; stroke-opacity: 0.25; stroke-width: 0.8; stroke-linecap: round"/>
     </g>
     <g id="line2d_40"/>
     <g id="text_22">
      <!-- 30 -->
      <g style="fill: #262626" transform="translate(945.557969 369.397812) scale(0.1 -0.1)">
       <use xlink:href="#ArialMT-33"/>
       <use xlink:href="#ArialMT-30" transform="translate(55.615234 0)"/>
      </g>
     </g>
    </g>
    <g id="text_23">
     <!-- Epoch -->
     <g style="fill: #262626" transform="translate(752.917187 382.543125) scale(0.1 -0.1)">
      <use xlink:href="#ArialMT-45"/>
      <use xlink:href="#ArialMT-70" transform="translate(66.699219 0)"/>
      <use xlink:href="#ArialMT-6f" transform="translate(122.314453 0)"/>
      <use xlink:href="#ArialMT-63" transform="translate(177.929688 0)"/>
      <use xlink:href="#ArialMT-68" transform="translate(227.929688 0)"/>
     </g>
    </g>
   </g>
   <g id="matplotlib.axis_4">
    <g id="ytick_6">
     <g id="line2d_41">
      <path d="M 540.60125 353.11361 
L 993.58625 353.11361 
" clip-path="url(#pd0e07d87d8)" style="fill: none; stroke: #cccccc; stroke-opacity: 0.25; stroke-width: 0.8; stroke-linecap: round"/>
     </g>
     <g id="line2d_42"/>
     <g id="text_24">
      <!-- 0.325 -->
      <g style="fill: #262626" transform="translate(512.079375 356.692516) scale(0.1 -0.1)">
       <defs>
        <path id="ArialMT-2e" d="M 581 0 
L 581 641 
L 1222 641 
L 1222 0 
L 581 0 
z
" transform="scale(0.015625)"/>
       </defs>
       <use xlink:href="#ArialMT-30"/>
       <use xlink:href="#ArialMT-2e" transform="translate(55.615234 0)"/>
       <use xlink:href="#ArialMT-33" transform="translate(83.398438 0)"/>
       <use xlink:href="#ArialMT-32" transform="translate(139.013672 0)"/>
       <use xlink:href="#ArialMT-35" transform="translate(194.628906 0)"/>
      </g>
     </g>
    </g>
    <g id="ytick_7">
     <g id="line2d_43">
      <path d="M 540.60125 318.806355 
L 993.58625 318.806355 
" clip-path="url(#pd0e07d87d8)" style="fill: none; stroke: #cccccc; stroke-opacity: 0.25; stroke-width: 0.8; stroke-linecap: round"/>
     </g>
     <g id="line2d_44"/>
     <g id="text_25">
      <!-- 0.350 -->
      <g style="fill: #262626" transform="translate(512.079375 322.385261) scale(0.1 -0.1)">
       <use xlink:href="#ArialMT-30"/>
       <use xlink:href="#ArialMT-2e" transform="translate(55.615234 0)"/>
       <use xlink:href="#ArialMT-33" transform="translate(83.398438 0)"/>
       <use xlink:href="#ArialMT-35" transform="translate(139.013672 0)"/>
       <use xlink:href="#ArialMT-30" transform="translate(194.628906 0)"/>
      </g>
     </g>
    </g>
    <g id="ytick_8">
     <g id="line2d_45">
      <path d="M 540.60125 284.4991 
L 993.58625 284.4991 
" clip-path="url(#pd0e07d87d8)" style="fill: none; stroke: #cccccc; stroke-opacity: 0.25; stroke-width: 0.8; stroke-linecap: round"/>
     </g>
     <g id="line2d_46"/>
     <g id="text_26">
      <!-- 0.375 -->
      <g style="fill: #262626" transform="translate(512.079375 288.078006) scale(0.1 -0.1)">
       <defs>
        <path id="ArialMT-37" d="M 303 3981 
L 303 4522 
L 3269 4522 
L 3269 4084 
Q 2831 3619 2401 2847 
Q 1972 2075 1738 1259 
Q 1569 684 1522 0 
L 944 0 
Q 953 541 1156 1306 
Q 1359 2072 1739 2783 
Q 2119 3494 2547 3981 
L 303 3981 
z
" transform="scale(0.015625)"/>
       </defs>
       <use xlink:href="#ArialMT-30"/>
       <use xlink:href="#ArialMT-2e" transform="translate(55.615234 0)"/>
       <use xlink:href="#ArialMT-33" transform="translate(83.398438 0)"/>
       <use xlink:href="#ArialMT-37" transform="translate(139.013672 0)"/>
       <use xlink:href="#ArialMT-35" transform="translate(194.628906 0)"/>
      </g>
     </g>
    </g>
    <g id="ytick_9">
     <g id="line2d_47">
      <path d="M 540.60125 250.191844 
L 993.58625 250.191844 
" clip-path="url(#pd0e07d87d8)" style="fill: none; stroke: #cccccc; stroke-opacity: 0.25; stroke-width: 0.8; stroke-linecap: round"/>
     </g>
     <g id="line2d_48"/>
     <g id="text_27">
      <!-- 0.400 -->
      <g style="fill: #262626" transform="translate(512.079375 253.770751) scale(0.1 -0.1)">
       <use xlink:href="#ArialMT-30"/>
       <use xlink:href="#ArialMT-2e" transform="translate(55.615234 0)"/>
       <use xlink:href="#ArialMT-34" transform="translate(83.398438 0)"/>
       <use xlink:href="#ArialMT-30" transform="translate(139.013672 0)"/>
       <use xlink:href="#ArialMT-30" transform="translate(194.628906 0)"/>
      </g>
     </g>
    </g>
    <g id="ytick_10">
     <g id="line2d_49">
      <path d="M 540.60125 215.884589 
L 993.58625 215.884589 
" clip-path="url(#pd0e07d87d8)" style="fill: none; stroke: #cccccc; stroke-opacity: 0.25; stroke-width: 0.8; stroke-linecap: round"/>
     </g>
     <g id="line2d_50"/>
     <g id="text_28">
      <!-- 0.425 -->
      <g style="fill: #262626" transform="translate(512.079375 219.463495) scale(0.1 -0.1)">
       <use xlink:href="#ArialMT-30"/>
       <use xlink:href="#ArialMT-2e" transform="translate(55.615234 0)"/>
       <use xlink:href="#ArialMT-34" transform="translate(83.398438 0)"/>
       <use xlink:href="#ArialMT-32" transform="translate(139.013672 0)"/>
       <use xlink:href="#ArialMT-35" transform="translate(194.628906 0)"/>
      </g>
     </g>
    </g>
    <g id="ytick_11">
     <g id="line2d_51">
      <path d="M 540.60125 181.577334 
L 993.58625 181.577334 
" clip-path="url(#pd0e07d87d8)" style="fill: none; stroke: #cccccc; stroke-opacity: 0.25; stroke-width: 0.8; stroke-linecap: round"/>
     </g>
     <g id="line2d_52"/>
     <g id="text_29">
      <!-- 0.450 -->
      <g style="fill: #262626" transform="translate(512.079375 185.15624) scale(0.1 -0.1)">
       <use xlink:href="#ArialMT-30"/>
       <use xlink:href="#ArialMT-2e" transform="translate(55.615234 0)"/>
       <use xlink:href="#ArialMT-34" transform="translate(83.398438 0)"/>
       <use xlink:href="#ArialMT-35" transform="translate(139.013672 0)"/>
       <use xlink:href="#ArialMT-30" transform="translate(194.628906 0)"/>
      </g>
     </g>
    </g>
    <g id="ytick_12">
     <g id="line2d_53">
      <path d="M 540.60125 147.270079 
L 993.58625 147.270079 
" clip-path="url(#pd0e07d87d8)" style="fill: none; stroke: #cccccc; stroke-opacity: 0.25; stroke-width: 0.8; stroke-linecap: round"/>
     </g>
     <g id="line2d_54"/>
     <g id="text_30">
      <!-- 0.475 -->
      <g style="fill: #262626" transform="translate(512.079375 150.848985) scale(0.1 -0.1)">
       <use xlink:href="#ArialMT-30"/>
       <use xlink:href="#ArialMT-2e" transform="translate(55.615234 0)"/>
       <use xlink:href="#ArialMT-34" transform="translate(83.398438 0)"/>
       <use xlink:href="#ArialMT-37" transform="translate(139.013672 0)"/>
       <use xlink:href="#ArialMT-35" transform="translate(194.628906 0)"/>
      </g>
     </g>
    </g>
    <g id="ytick_13">
     <g id="line2d_55">
      <path d="M 540.60125 112.962823 
L 993.58625 112.962823 
" clip-path="url(#pd0e07d87d8)" style="fill: none; stroke: #cccccc; stroke-opacity: 0.25; stroke-width: 0.8; stroke-linecap: round"/>
     </g>
     <g id="line2d_56"/>
     <g id="text_31">
      <!-- 0.500 -->
      <g style="fill: #262626" transform="translate(512.079375 116.54173) scale(0.1 -0.1)">
       <use xlink:href="#ArialMT-30"/>
       <use xlink:href="#ArialMT-2e" transform="translate(55.615234 0)"/>
       <use xlink:href="#ArialMT-35" transform="translate(83.398438 0)"/>
       <use xlink:href="#ArialMT-30" transform="translate(139.013672 0)"/>
       <use xlink:href="#ArialMT-30" transform="translate(194.628906 0)"/>
      </g>
     </g>
    </g>
    <g id="text_32">
     <!-- Loss -->
     <g style="fill: #262626" transform="translate(506.091875 231.934687) rotate(-90) scale(0.1 -0.1)">
      <defs>
       <path id="ArialMT-4c" d="M 469 0 
L 469 4581 
L 1075 4581 
L 1075 541 
L 3331 541 
L 3331 0 
L 469 0 
z
" transform="scale(0.015625)"/>
       <path id="ArialMT-73" d="M 197 991 
L 753 1078 
Q 800 744 1014 566 
Q 1228 388 1613 388 
Q 2000 388 2187 545 
Q 2375 703 2375 916 
Q 2375 1106 2209 1216 
Q 2094 1291 1634 1406 
Q 1016 1563 777 1677 
Q 538 1791 414 1992 
Q 291 2194 291 2438 
Q 291 2659 392 2848 
Q 494 3038 669 3163 
Q 800 3259 1026 3326 
Q 1253 3394 1513 3394 
Q 1903 3394 2198 3281 
Q 2494 3169 2634 2976 
Q 2775 2784 2828 2463 
L 2278 2388 
Q 2241 2644 2061 2787 
Q 1881 2931 1553 2931 
Q 1166 2931 1000 2803 
Q 834 2675 834 2503 
Q 834 2394 903 2306 
Q 972 2216 1119 2156 
Q 1203 2125 1616 2013 
Q 2213 1853 2448 1751 
Q 2684 1650 2818 1456 
Q 2953 1263 2953 975 
Q 2953 694 2789 445 
Q 2625 197 2315 61 
Q 2006 -75 1616 -75 
Q 969 -75 630 194 
Q 291 463 197 991 
z
" transform="scale(0.015625)"/>
      </defs>
      <use xlink:href="#ArialMT-4c"/>
      <use xlink:href="#ArialMT-6f" transform="translate(55.615234 0)"/>
      <use xlink:href="#ArialMT-73" transform="translate(111.230469 0)"/>
      <use xlink:href="#ArialMT-73" transform="translate(161.230469 0)"/>
     </g>
    </g>
   </g>
   <g id="line2d_57">
    <path d="M 540.60125 96.495341 
L 554.757031 162.365271 
L 568.912812 193.927946 
L 583.068594 203.533977 
L 597.224375 200.789397 
L 611.380156 211.767719 
L 625.535938 235.096652 
L 639.691719 250.191844 
L 653.8475 243.330393 
L 668.003281 252.936425 
L 682.159063 244.702684 
L 696.314844 258.425586 
L 710.470625 258.425586 
L 724.626406 269.403907 
L 738.782188 281.754519 
L 752.937969 277.637649 
L 767.09375 287.24368 
L 781.249531 284.4991 
L 795.405313 294.105131 
L 809.561094 281.754519 
L 823.716875 291.360551 
L 837.872656 292.732841 
L 852.028438 289.98826 
L 866.184219 291.360551 
L 880.34 299.594292 
L 894.495781 306.455743 
L 908.651563 314.689484 
L 922.807344 305.083453 
L 936.963125 311.944904 
L 951.118906 316.061774 
L 965.274688 318.806355 
L 979.430469 324.295516 
L 993.58625 310.572614 
" clip-path="url(#pd0e07d87d8)" style="fill: none; stroke: #8c4f2f; stroke-width: 2; stroke-linecap: round"/>
   </g>
   <g id="line2d_58">
    <path d="M 540.60125 285.87139 
L 554.757031 281.754519 
L 568.912812 277.637649 
L 583.068594 276.265358 
L 597.224375 276.265358 
L 611.380156 284.4991 
L 625.535938 288.61597 
L 639.691719 289.98826 
L 653.8475 296.849712 
L 668.003281 299.594292 
L 682.159063 305.083453 
L 696.314844 309.200323 
L 710.470625 309.200323 
L 724.626406 313.317194 
L 738.782188 314.689484 
L 752.937969 317.434065 
L 767.09375 318.806355 
L 781.249531 322.923226 
L 795.405313 325.667806 
L 809.561094 327.040096 
L 823.716875 328.412386 
L 837.872656 329.784677 
L 852.028438 329.784677 
L 866.184219 332.529257 
L 880.34 333.901547 
L 894.495781 336.646128 
L 908.651563 338.018418 
L 922.807344 339.390708 
L 936.963125 339.390708 
L 951.118906 343.507579 
L 965.274688 340.762998 
L 979.430469 343.507579 
L 993.58625 346.252159 
" clip-path="url(#pd0e07d87d8)" style="fill: none; stroke-dasharray: 7.4,3.2; stroke-dashoffset: 0; stroke: #c07f59; stroke-width: 2"/>
   </g>
   <g id="line2d_59">
    <path d="M 540.60125 129.430306 
L 554.757031 150.929519 
L 568.912812 186.609065 
L 583.068594 199.417107 
L 597.224375 205.363698 
L 611.380156 215.884589 
L 625.535938 232.352072 
L 639.691719 242.872963 
L 653.8475 248.819554 
L 668.003281 246.989834 
L 682.159063 252.021565 
L 696.314844 253.851285 
L 710.470625 262.085026 
L 724.626406 269.861337 
L 738.782188 276.265358 
L 752.937969 282.211949 
L 767.09375 283.126809 
L 781.249531 288.61597 
L 795.405313 286.78625 
L 809.561094 289.0734 
L 823.716875 288.61597 
L 837.872656 291.360551 
L 852.028438 291.360551 
L 866.184219 293.647701 
L 880.34 299.136862 
L 894.495781 306.913173 
L 908.651563 308.742893 
L 922.807344 310.572614 
L 936.963125 311.030044 
L 951.118906 315.604344 
L 965.274688 319.721215 
L 979.430469 317.891495 
L 993.58625 317.434065 
" clip-path="url(#pd0e07d87d8)" style="fill: none; stroke: #8c4f2f; stroke-opacity: 0.5; stroke-width: 1.2; stroke-linecap: round"/>
   </g>
   <g id="line2d_60">
    <path d="M 540.60125 283.812955 
L 554.757031 281.754519 
L 568.912812 278.552509 
L 583.068594 276.722788 
L 597.224375 279.009939 
L 611.380156 283.126809 
L 625.535938 287.70111 
L 639.691719 291.817981 
L 653.8475 295.477421 
L 668.003281 300.509152 
L 682.159063 304.626023 
L 696.314844 307.828033 
L 710.470625 310.572614 
L 724.626406 312.402334 
L 738.782188 315.146914 
L 752.937969 316.976635 
L 767.09375 319.721215 
L 781.249531 322.465795 
L 795.405313 325.210376 
L 809.561094 327.040096 
L 823.716875 328.412386 
L 837.872656 329.327247 
L 852.028438 330.699537 
L 866.184219 332.071827 
L 880.34 334.358977 
L 894.495781 336.188698 
L 908.651563 338.018418 
L 922.807344 338.933278 
L 936.963125 340.762998 
L 951.118906 341.220428 
L 965.274688 342.592719 
L 979.430469 343.507579 
L 993.58625 344.879869 
" clip-path="url(#pd0e07d87d8)" style="fill: none; stroke-dasharray: 4.44,1.92; stroke-dashoffset: 0; stroke: #c07f59; stroke-opacity: 0.5; stroke-width: 1.2"/>
   </g>
   <g id="patch_9">
    <path d="M 540.60125 358.74 
L 540.60125 84.0075 
" style="fill: none; stroke: #cccccc; stroke-linejoin: miter; stroke-linecap: square"/>
   </g>
   <g id="patch_10">
    <path d="M 993.58625 358.74 
L 993.58625 84.0075 
" style="fill: none; stroke: #cccccc; stroke-linejoin: miter; stroke-linecap: square"/>
   </g>
   <g id="patch_11">
    <path d="M 540.60125 358.74 
L 993.58625 358.74 
" style="fill: none; stroke: #cccccc; stroke-linejoin: miter; stroke-linecap: square"/>
   </g>
   <g id="patch_12">
    <path d="M 540.60125 84.0075 
L 993.58625 84.0075 
" style="fill: none; stroke: #cccccc; stroke-linejoin: miter; stroke-linecap: square"/>
   </g>
   <g id="text_33">
    <!-- Not Bignay Classifier Loss Convergence -->
    <g style="fill: #262626" transform="translate(661.043437 78.0075) scale(0.11 -0.11)">
     <defs>
      <path id="Arial-BoldMT-4c" d="M 491 0 
L 491 4544 
L 1416 4544 
L 1416 772 
L 3716 772 
L 3716 0 
L 491 0 
z
" transform="scale(0.015625)"/>
     </defs>
     <use xlink:href="#Arial-BoldMT-4e"/>
     <use xlink:href="#Arial-BoldMT-6f" transform="translate(72.216797 0)"/>
     <use xlink:href="#Arial-BoldMT-74" transform="translate(133.300781 0)"/>
     <use xlink:href="#Arial-BoldMT-20" transform="translate(166.601562 0)"/>
     <use xlink:href="#Arial-BoldMT-42" transform="translate(194.384766 0)"/>
     <use xlink:href="#Arial-BoldMT-69" transform="translate(266.601562 0)"/>
     <use xlink:href="#Arial-BoldMT-67" transform="translate(294.384766 0)"/>
     <use xlink:href="#Arial-BoldMT-6e" transform="translate(355.46875 0)"/>
     <use xlink:href="#Arial-BoldMT-61" transform="translate(416.552734 0)"/>
     <use xlink:href="#Arial-BoldMT-79" transform="translate(472.167969 0)"/>
     <use xlink:href="#Arial-BoldMT-20" transform="translate(527.783203 0)"/>
     <use xlink:href="#Arial-BoldMT-43" transform="translate(555.566406 0)"/>
     <use xlink:href="#Arial-BoldMT-6c" transform="translate(627.783203 0)"/>
     <use xlink:href="#Arial-BoldMT-61" transform="translate(655.566406 0)"/>
     <use xlink:href="#Arial-BoldMT-73" transform="translate(711.181641 0)"/>
     <use xlink:href="#Arial-BoldMT-73" transform="translate(766.796875 0)"/>
     <use xlink:href="#Arial-BoldMT-69" transform="translate(822.412109 0)"/>
     <use xlink:href="#Arial-BoldMT-66" transform="translate(850.195312 0)"/>
     <use xlink:href="#Arial-BoldMT-69" transform="translate(883.496094 0)"/>
     <use xlink:href="#Arial-BoldMT-65" transform="translate(911.279297 0)"/>
     <use xlink:href="#Arial-BoldMT-72" transform="translate(966.894531 0)"/>
     <use xlink:href="#Arial-BoldMT-20" transform="translate(1005.810547 0)"/>
     <use xlink:href="#Arial-BoldMT-4c" transform="translate(1033.59375 0)"/>
     <use xlink:href="#Arial-BoldMT-6f" transform="translate(1094.677734 0)"/>
     <use xlink:href="#Arial-BoldMT-73" transform="translate(1155.761719 0)"/>
     <use xlink:href="#Arial-BoldMT-73" transform="translate(1211.376953 0)"/>
     <use xlink:href="#Arial-BoldMT-20" transform="translate(1266.992188 0)"/>
     <use xlink:href="#Arial-BoldMT-43" transform="translate(1294.775391 0)"/>
     <use xlink:href="#Arial-BoldMT-6f" transform="translate(1366.992188 0)"/>
     <use xlink:href="#Arial-BoldMT-6e" transform="translate(1428.076172 0)"/>
     <use xlink:href="#Arial-BoldMT-76" transform="translate(1489.160156 0)"/>
     <use xlink:href="#Arial-BoldMT-65" transform="translate(1544.775391 0)"/>
     <use xlink:href="#Arial-BoldMT-72" transform="translate(1600.390625 0)"/>
     <use xlink:href="#Arial-BoldMT-67" transform="translate(1639.306641 0)"/>
     <use xlink:href="#Arial-BoldMT-65" transform="translate(1700.390625 0)"/>
     <use xlink:href="#Arial-BoldMT-6e" transform="translate(1756.005859 0)"/>
     <use xlink:href="#Arial-BoldMT-63" transform="translate(1817.089844 0)"/>
     <use xlink:href="#Arial-BoldMT-65" transform="translate(1872.705078 0)"/>
    </g>
   </g>
   <g id="legend_2">
    <g id="patch_13">
     <path d="M 908.72125 113.04 
L 987.98625 113.04 
Q 989.58625 113.04 989.58625 111.44 
L 989.58625 89.6075 
Q 989.58625 88.0075 987.98625 88.0075 
L 908.72125 88.0075 
Q 907.12125 88.0075 907.12125 89.6075 
L 907.12125 111.44 
Q 907.12125 113.04 908.72125 113.04 
z
" style="fill: #ffffff; opacity: 0.8; stroke: #cccccc; stroke-linejoin: miter"/>
    </g>
    <g id="line2d_61">
     <path d="M 910.32125 94.13375 
L 918.32125 94.13375 
L 926.32125 94.13375 
" style="fill: none; stroke: #8c4f2f; stroke-width: 2; stroke-linecap: round"/>
    </g>
    <g id="text_34">
     <!-- Train Loss -->
     <g style="fill: #262626" transform="translate(932.72125 96.93375) scale(0.08 -0.08)">
      <use xlink:href="#ArialMT-54"/>
      <use xlink:href="#ArialMT-72" transform="translate(57.333984 0)"/>
      <use xlink:href="#ArialMT-61" transform="translate(90.634766 0)"/>
      <use xlink:href="#ArialMT-69" transform="translate(146.25 0)"/>
      <use xlink:href="#ArialMT-6e" transform="translate(168.466797 0)"/>
      <use xlink:href="#ArialMT-20" transform="translate(224.082031 0)"/>
      <use xlink:href="#ArialMT-4c" transform="translate(251.865234 0)"/>
      <use xlink:href="#ArialMT-6f" transform="translate(307.480469 0)"/>
      <use xlink:href="#ArialMT-73" transform="translate(363.095703 0)"/>
      <use xlink:href="#ArialMT-73" transform="translate(413.095703 0)"/>
     </g>
    </g>
    <g id="line2d_62">
     <path d="M 910.32125 105.45 
L 918.32125 105.45 
L 926.32125 105.45 
" style="fill: none; stroke-dasharray: 7.4,3.2; stroke-dashoffset: 0; stroke: #c07f59; stroke-width: 2"/>
    </g>
    <g id="text_35">
     <!-- Validation Loss -->
     <g style="fill: #262626" transform="translate(932.72125 108.25) scale(0.08 -0.08)">
      <use xlink:href="#ArialMT-56"/>
      <use xlink:href="#ArialMT-61" transform="translate(59.324219 0)"/>
      <use xlink:href="#ArialMT-6c" transform="translate(114.939453 0)"/>
      <use xlink:href="#ArialMT-69" transform="translate(137.15625 0)"/>
      <use xlink:href="#ArialMT-64" transform="translate(159.373047 0)"/>
      <use xlink:href="#ArialMT-61" transform="translate(214.988281 0)"/>
      <use xlink:href="#ArialMT-74" transform="translate(270.603516 0)"/>
      <use xlink:href="#ArialMT-69" transform="translate(298.386719 0)"/>
      <use xlink:href="#ArialMT-6f" transform="translate(320.603516 0)"/>
      <use xlink:href="#ArialMT-6e" transform="translate(376.21875 0)"/>
      <use xlink:href="#ArialMT-20" transform="translate(431.833984 0)"/>
      <use xlink:href="#ArialMT-4c" transform="translate(459.617188 0)"/>
      <use xlink:href="#ArialMT-6f" transform="translate(515.232422 0)"/>
      <use xlink:href="#ArialMT-73" transform="translate(570.847656 0)"/>
      <use xlink:href="#ArialMT-73" transform="translate(620.847656 0)"/>
     </g>
    </g>
   </g>
  </g>
  <g id="text_36">
   <!-- Training and Validation Convergence - Not Bignay Classifier -->
   <g style="fill: #262626" transform="translate(300.856719 17.391562) scale(0.14 -0.14)">
    <defs>
     <path id="Arial-BoldMT-54" d="M 1497 0 
L 1497 3806 
L 138 3806 
L 138 4581 
L 3778 4581 
L 3778 3806 
L 2422 3806 
L 2422 0 
L 1497 0 
z
" transform="scale(0.015625)"/>
     <path id="Arial-BoldMT-64" d="M 3503 0 
L 2688 0 
L 2688 488 
Q 2484 203 2207 64 
Q 1931 -75 1650 -75 
Q 1078 -75 670 386 
Q 263 847 263 1672 
Q 263 2516 659 2955 
Q 1056 3394 1663 3394 
Q 2219 3394 2625 2931 
L 2625 4581 
L 3503 4581 
L 3503 0 
z
M 1159 1731 
Q 1159 1200 1306 963 
Q 1519 619 1900 619 
Q 2203 619 2415 876 
Q 2628 1134 2628 1647 
Q 2628 2219 2422 2470 
Q 2216 2722 1894 2722 
Q 1581 2722 1370 2473 
Q 1159 2225 1159 1731 
z
" transform="scale(0.015625)"/>
     <path id="Arial-BoldMT-56" d="M 1634 0 
L -3 4581 
L 1000 4581 
L 2159 1191 
L 3281 4581 
L 4263 4581 
L 2622 0 
L 1634 0 
z
" transform="scale(0.015625)"/>
     <path id="Arial-BoldMT-2d" d="M 359 1222 
L 359 2100 
L 2084 2100 
L 2084 1222 
L 359 1222 
z
" transform="scale(0.015625)"/>
    </defs>
    <use xlink:href="#Arial-BoldMT-54"/>
    <use xlink:href="#Arial-BoldMT-72" transform="translate(55.583984 0)"/>
    <use xlink:href="#Arial-BoldMT-61" transform="translate(94.5 0)"/>
    <use xlink:href="#Arial-BoldMT-69" transform="translate(150.115234 0)"/>
    <use xlink:href="#Arial-BoldMT-6e" transform="translate(177.898438 0)"/>
    <use xlink:href="#Arial-BoldMT-69" transform="translate(238.982422 0)"/>
    <use xlink:href="#Arial-BoldMT-6e" transform="translate(266.765625 0)"/>
    <use xlink:href="#Arial-BoldMT-67" transform="translate(327.849609 0)"/>
    <use xlink:href="#Arial-BoldMT-20" transform="translate(388.933594 0)"/>
    <use xlink:href="#Arial-BoldMT-61" transform="translate(416.716797 0)"/>
    <use xlink:href="#Arial-BoldMT-6e" transform="translate(472.332031 0)"/>
    <use xlink:href="#Arial-BoldMT-64" transform="translate(533.416016 0)"/>
    <use xlink:href="#Arial-BoldMT-20" transform="translate(594.5 0)"/>
    <use xlink:href="#Arial-BoldMT-56" transform="translate(622.283203 0)"/>
    <use xlink:href="#Arial-BoldMT-61" transform="translate(683.482422 0)"/>
    <use xlink:href="#Arial-BoldMT-6c" transform="translate(739.097656 0)"/>
    <use xlink:href="#Arial-BoldMT-69" transform="translate(766.880859 0)"/>
    <use xlink:href="#Arial-BoldMT-64" transform="translate(794.664062 0)"/>
    <use xlink:href="#Arial-BoldMT-61" transform="translate(855.748047 0)"/>
    <use xlink:href="#Arial-BoldMT-74" transform="translate(911.363281 0)"/>
    <use xlink:href="#Arial-BoldMT-69" transform="translate(944.664062 0)"/>
    <use xlink:href="#Arial-BoldMT-6f" transform="translate(972.447266 0)"/>
    <use xlink:href="#Arial-BoldMT-6e" transform="translate(1033.53125 0)"/>
    <use xlink:href="#Arial-BoldMT-20" transform="translate(1094.615234 0)"/>
    <use xlink:href="#Arial-BoldMT-43" transform="translate(1122.398438 0)"/>
    <use xlink:href="#Arial-BoldMT-6f" transform="translate(1194.615234 0)"/>
    <use xlink:href="#Arial-BoldMT-6e" transform="translate(1255.699219 0)"/>
    <use xlink:href="#Arial-BoldMT-76" transform="translate(1316.783203 0)"/>
    <use xlink:href="#Arial-BoldMT-65" transform="translate(1372.398438 0)"/>
    <use xlink:href="#Arial-BoldMT-72" transform="translate(1428.013672 0)"/>
    <use xlink:href="#Arial-BoldMT-67" transform="translate(1466.929688 0)"/>
    <use xlink:href="#Arial-BoldMT-65" transform="translate(1528.013672 0)"/>
    <use xlink:href="#Arial-BoldMT-6e" transform="translate(1583.628906 0)"/>
    <use xlink:href="#Arial-BoldMT-63" transform="translate(1644.712891 0)"/>
    <use xlink:href="#Arial-BoldMT-65" transform="translate(1700.328125 0)"/>
    <use xlink:href="#Arial-BoldMT-20" transform="translate(1755.943359 0)"/>
    <use xlink:href="#Arial-BoldMT-2d" transform="translate(1783.726562 0)"/>
    <use xlink:href="#Arial-BoldMT-20" transform="translate(1817.027344 0)"/>
    <use xlink:href="#Arial-BoldMT-4e" transform="translate(1844.810547 0)"/>
    <use xlink:href="#Arial-BoldMT-6f" transform="translate(1917.027344 0)"/>
    <use xlink:href="#Arial-BoldMT-74" transform="translate(1978.111328 0)"/>
    <use xlink:href="#Arial-BoldMT-20" transform="translate(2011.412109 0)"/>
    <use xlink:href="#Arial-BoldMT-42" transform="translate(2039.195312 0)"/>
    <use xlink:href="#Arial-BoldMT-69" transform="translate(2111.412109 0)"/>
    <use xlink:href="#Arial-BoldMT-67" transform="translate(2139.195312 0)"/>
    <use xlink:href="#Arial-BoldMT-6e" transform="translate(2200.279297 0)"/>
    <use xlink:href="#Arial-BoldMT-61" transform="translate(2261.363281 0)"/>
    <use xlink:href="#Arial-BoldMT-79" transform="translate(2316.978516 0)"/>
    <use xlink:href="#Arial-BoldMT-20" transform="translate(2372.59375 0)"/>
    <use xlink:href="#Arial-BoldMT-43" transform="translate(2400.376953 0)"/>
    <use xlink:href="#Arial-BoldMT-6c" transform="translate(2472.59375 0)"/>
    <use xlink:href="#Arial-BoldMT-61" transform="translate(2500.376953 0)"/>
    <use xlink:href="#Arial-BoldMT-73" transform="translate(2555.992188 0)"/>
    <use xlink:href="#Arial-BoldMT-73" transform="translate(2611.607422 0)"/>
    <use xlink:href="#Arial-BoldMT-69" transform="translate(2667.222656 0)"/>
    <use xlink:href="#Arial-BoldMT-66" transform="translate(2695.005859 0)"/>
    <use xlink:href="#Arial-BoldMT-69" transform="translate(2728.306641 0)"/>
    <use xlink:href="#Arial-BoldMT-65" transform="translate(2756.089844 0)"/>
    <use xlink:href="#Arial-BoldMT-72" transform="translate(2811.705078 0)"/>
   </g>
  </g>
  <g id="text_37">
   <!-- 33 epochs | Best Val Acc: 99.31% (Epoch 18) | Final Val Loss: 0.330 | Classes: bignay, not_bignay -->
   <g style="fill: #444444" transform="translate(305.019453 405.265781) scale(0.09 -0.09)">
    <defs>
     <path id="ArialMT-65" d="M 2694 1069 
L 3275 997 
Q 3138 488 2766 206 
Q 2394 -75 1816 -75 
Q 1088 -75 661 373 
Q 234 822 234 1631 
Q 234 2469 665 2931 
Q 1097 3394 1784 3394 
Q 2450 3394 2872 2941 
Q 3294 2488 3294 1666 
Q 3294 1616 3291 1516 
L 816 1516 
Q 847 969 1125 678 
Q 1403 388 1819 388 
Q 2128 388 2347 550 
Q 2566 713 2694 1069 
z
M 847 1978 
L 2700 1978 
Q 2663 2397 2488 2606 
Q 2219 2931 1791 2931 
Q 1403 2931 1139 2672 
Q 875 2413 847 1978 
z
" transform="scale(0.015625)"/>
     <path id="ArialMT-7c" d="M 588 -1347 
L 588 4659 
L 1078 4659 
L 1078 -1347 
L 588 -1347 
z
" transform="scale(0.015625)"/>
     <path id="ArialMT-42" d="M 469 0 
L 469 4581 
L 2188 4581 
Q 2713 4581 3030 4442 
Q 3347 4303 3526 4014 
Q 3706 3725 3706 3409 
Q 3706 3116 3547 2856 
Q 3388 2597 3066 2438 
Q 3481 2316 3704 2022 
Q 3928 1728 3928 1328 
Q 3928 1006 3792 729 
Q 3656 453 3456 303 
Q 3256 153 2954 76 
Q 2653 0 2216 0 
L 469 0 
z
M 1075 2656 
L 2066 2656 
Q 2469 2656 2644 2709 
Q 2875 2778 2992 2937 
Q 3109 3097 3109 3338 
Q 3109 3566 3000 3739 
Q 2891 3913 2687 3977 
Q 2484 4041 1991 4041 
L 1075 4041 
L 1075 2656 
z
M 1075 541 
L 2216 541 
Q 2509 541 2628 563 
Q 2838 600 2978 687 
Q 3119 775 3209 942 
Q 3300 1109 3300 1328 
Q 3300 1584 3169 1773 
Q 3038 1963 2805 2039 
Q 2572 2116 2134 2116 
L 1075 2116 
L 1075 541 
z
" transform="scale(0.015625)"/>
     <path id="ArialMT-3a" d="M 578 2678 
L 578 3319 
L 1219 3319 
L 1219 2678 
L 578 2678 
z
M 578 0 
L 578 641 
L 1219 641 
L 1219 0 
L 578 0 
z
" transform="scale(0.015625)"/>
     <path id="ArialMT-46" d="M 525 0 
L 525 4581 
L 3616 4581 
L 3616 4041 
L 1131 4041 
L 1131 2622 
L 3281 2622 
L 3281 2081 
L 1131 2081 
L 1131 0 
L 525 0 
z
" transform="scale(0.015625)"/>
     <path id="ArialMT-43" d="M 3763 1606 
L 4369 1453 
Q 4178 706 3683 314 
Q 3188 -78 2472 -78 
Q 1731 -78 1267 223 
Q 803 525 561 1097 
Q 319 1669 319 2325 
Q 319 3041 592 3573 
Q 866 4106 1370 4382 
Q 1875 4659 2481 4659 
Q 3169 4659 3637 4309 
Q 4106 3959 4291 3325 
L 3694 3184 
Q 3534 3684 3231 3912 
Q 2928 4141 2469 4141 
Q 1941 4141 1586 3887 
Q 1231 3634 1087 3207 
Q 944 2781 944 2328 
Q 944 1744 1114 1308 
Q 1284 872 1643 656 
Q 2003 441 2422 441 
Q 2931 441 3284 734 
Q 3638 1028 3763 1606 
z
" transform="scale(0.015625)"/>
     <path id="ArialMT-62" d="M 941 0 
L 419 0 
L 419 4581 
L 981 4581 
L 981 2947 
Q 1338 3394 1891 3394 
Q 2197 3394 2470 3270 
Q 2744 3147 2920 2923 
Q 3097 2700 3197 2384 
Q 3297 2069 3297 1709 
Q 3297 856 2875 390 
Q 2453 -75 1863 -75 
Q 1275 -75 941 416 
L 941 0 
z
M 934 1684 
Q 934 1088 1097 822 
Q 1363 388 1816 388 
Q 2184 388 2453 708 
Q 2722 1028 2722 1663 
Q 2722 2313 2464 2622 
Q 2206 2931 1841 2931 
Q 1472 2931 1203 2611 
Q 934 2291 934 1684 
z
" transform="scale(0.015625)"/>
     <path id="ArialMT-67" d="M 319 -275 
L 866 -356 
Q 900 -609 1056 -725 
Q 1266 -881 1628 -881 
Q 2019 -881 2231 -725 
Q 2444 -569 2519 -288 
Q 2563 -116 2559 434 
Q 2191 0 1641 0 
Q 956 0 581 494 
Q 206 988 206 1678 
Q 206 2153 378 2554 
Q 550 2956 876 3175 
Q 1203 3394 1644 3394 
Q 2231 3394 2613 2919 
L 2613 3319 
L 3131 3319 
L 3131 450 
Q 3131 -325 2973 -648 
Q 2816 -972 2473 -1159 
Q 2131 -1347 1631 -1347 
Q 1038 -1347 672 -1080 
Q 306 -813 319 -275 
z
M 784 1719 
Q 784 1066 1043 766 
Q 1303 466 1694 466 
Q 2081 466 2343 764 
Q 2606 1063 2606 1700 
Q 2606 2309 2336 2618 
Q 2066 2928 1684 2928 
Q 1309 2928 1046 2623 
Q 784 2319 784 1719 
z
" transform="scale(0.015625)"/>
     <path id="ArialMT-2c" d="M 569 0 
L 569 641 
L 1209 641 
L 1209 0 
Q 1209 -353 1084 -570 
Q 959 -788 688 -906 
L 531 -666 
Q 709 -588 793 -436 
Q 878 -284 888 0 
L 569 0 
z
" transform="scale(0.015625)"/>
     <path id="ArialMT-5f" d="M -97 -1272 
L -97 -866 
L 3631 -866 
L 3631 -1272 
L -97 -1272 
z
" transform="scale(0.015625)"/>
    </defs>
    <use xlink:href="#ArialMT-33"/>
    <use xlink:href="#ArialMT-33" transform="translate(55.615234 0)"/>
    <use xlink:href="#ArialMT-20" transform="translate(111.230469 0)"/>
    <use xlink:href="#ArialMT-65" transform="translate(139.013672 0)"/>
    <use xlink:href="#ArialMT-70" transform="translate(194.628906 0)"/>
    <use xlink:href="#ArialMT-6f" transform="translate(250.244141 0)"/>
    <use xlink:href="#ArialMT-63" transform="translate(305.859375 0)"/>
    <use xlink:href="#ArialMT-68" transform="translate(355.859375 0)"/>
    <use xlink:href="#ArialMT-73" transform="translate(411.474609 0)"/>
    <use xlink:href="#ArialMT-20" transform="translate(461.474609 0)"/>
    <use xlink:href="#ArialMT-7c" transform="translate(489.257812 0)"/>
    <use xlink:href="#ArialMT-20" transform="translate(515.234375 0)"/>
    <use xlink:href="#ArialMT-42" transform="translate(543.017578 0)"/>
    <use xlink:href="#ArialMT-65" transform="translate(609.716797 0)"/>
    <use xlink:href="#ArialMT-73" transform="translate(665.332031 0)"/>
    <use xlink:href="#ArialMT-74" transform="translate(715.332031 0)"/>
    <use xlink:href="#ArialMT-20" transform="translate(743.115234 0)"/>
    <use xlink:href="#ArialMT-56" transform="translate(770.898438 0)"/>
    <use xlink:href="#ArialMT-61" transform="translate(830.222656 0)"/>
    <use xlink:href="#ArialMT-6c" transform="translate(885.837891 0)"/>
    <use xlink:href="#ArialMT-20" transform="translate(908.054688 0)"/>
    <use xlink:href="#ArialMT-41" transform="translate(930.337891 0)"/>
    <use xlink:href="#ArialMT-63" transform="translate(997.037109 0)"/>
    <use xlink:href="#ArialMT-63" transform="translate(1047.037109 0)"/>
    <use xlink:href="#ArialMT-3a" transform="translate(1097.037109 0)"/>
    <use xlink:href="#ArialMT-20" transform="translate(1124.820312 0)"/>
    <use xlink:href="#ArialMT-39" transform="translate(1152.603516 0)"/>
    <use xlink:href="#ArialMT-39" transform="translate(1208.21875 0)"/>
    <use xlink:href="#ArialMT-2e" transform="translate(1263.833984 0)"/>
    <use xlink:href="#ArialMT-33" transform="translate(1291.617188 0)"/>
    <use xlink:href="#ArialMT-31" transform="translate(1347.232422 0)"/>
    <use xlink:href="#ArialMT-25" transform="translate(1402.847656 0)"/>
    <use xlink:href="#ArialMT-20" transform="translate(1491.763672 0)"/>
    <use xlink:href="#ArialMT-28" transform="translate(1519.546875 0)"/>
    <use xlink:href="#ArialMT-45" transform="translate(1552.847656 0)"/>
    <use xlink:href="#ArialMT-70" transform="translate(1619.546875 0)"/>
    <use xlink:href="#ArialMT-6f" transform="translate(1675.162109 0)"/>
    <use xlink:href="#ArialMT-63" transform="translate(1730.777344 0)"/>
    <use xlink:href="#ArialMT-68" transform="translate(1780.777344 0)"/>
    <use xlink:href="#ArialMT-20" transform="translate(1836.392578 0)"/>
    <use xlink:href="#ArialMT-31" transform="translate(1864.175781 0)"/>
    <use xlink:href="#ArialMT-38" transform="translate(1919.791016 0)"/>
    <use xlink:href="#ArialMT-29" transform="translate(1975.40625 0)"/>
    <use xlink:href="#ArialMT-20" transform="translate(2008.707031 0)"/>
    <use xlink:href="#ArialMT-7c" transform="translate(2036.490234 0)"/>
    <use xlink:href="#ArialMT-20" transform="translate(2062.466797 0)"/>
    <use xlink:href="#ArialMT-46" transform="translate(2090.25 0)"/>
    <use xlink:href="#ArialMT-69" transform="translate(2151.333984 0)"/>
    <use xlink:href="#ArialMT-6e" transform="translate(2173.550781 0)"/>
    <use xlink:href="#ArialMT-61" transform="translate(2229.166016 0)"/>
    <use xlink:href="#ArialMT-6c" transform="translate(2284.78125 0)"/>
    <use xlink:href="#ArialMT-20" transform="translate(2306.998047 0)"/>
    <use xlink:href="#ArialMT-56" transform="translate(2334.78125 0)"/>
    <use xlink:href="#ArialMT-61" transform="translate(2394.105469 0)"/>
    <use xlink:href="#ArialMT-6c" transform="translate(2449.720703 0)"/>
    <use xlink:href="#ArialMT-20" transform="translate(2471.9375 0)"/>
    <use xlink:href="#ArialMT-4c" transform="translate(2499.720703 0)"/>
    <use xlink:href="#ArialMT-6f" transform="translate(2555.335938 0)"/>
    <use xlink:href="#ArialMT-73" transform="translate(2610.951172 0)"/>
    <use xlink:href="#ArialMT-73" transform="translate(2660.951172 0)"/>
    <use xlink:href="#ArialMT-3a" transform="translate(2710.951172 0)"/>
    <use xlink:href="#ArialMT-20" transform="translate(2738.734375 0)"/>
    <use xlink:href="#ArialMT-30" transform="translate(2766.517578 0)"/>
    <use xlink:href="#ArialMT-2e" transform="translate(2822.132812 0)"/>
    <use xlink:href="#ArialMT-33" transform="translate(2849.916016 0)"/>
    <use xlink:href="#ArialMT-33" transform="translate(2905.53125 0)"/>
    <use xlink:href="#ArialMT-30" transform="translate(2961.146484 0)"/>
    <use xlink:href="#ArialMT-20" transform="translate(3016.761719 0)"/>
    <use xlink:href="#ArialMT-7c" transform="translate(3044.544922 0)"/>
    <use xlink:href="#ArialMT-20" transform="translate(3070.521484 0)"/>
    <use xlink:href="#ArialMT-43" transform="translate(3098.304688 0)"/>
    <use xlink:href="#ArialMT-6c" transform="translate(3170.521484 0)"/>
    <use xlink:href="#ArialMT-61" transform="translate(3192.738281 0)"/>
    <use xlink:href="#ArialMT-73" transform="translate(3248.353516 0)"/>
    <use xlink:href="#ArialMT-73" transform="translate(3298.353516 0)"/>
    <use xlink:href="#ArialMT-65" transform="translate(3348.353516 0)"/>
    <use xlink:href="#ArialMT-73" transform="translate(3403.96875 0)"/>
    <use xlink:href="#ArialMT-3a" transform="translate(3453.96875 0)"/>
    <use xlink:href="#ArialMT-20" transform="translate(3481.751953 0)"/>
    <use xlink:href="#ArialMT-62" transform="translate(3509.535156 0)"/>
    <use xlink:href="#ArialMT-69" transform="translate(3565.150391 0)"/>
    <use xlink:href="#ArialMT-67" transform="translate(3587.367188 0)"/>
    <use xlink:href="#ArialMT-6e" transform="translate(3642.982422 0)"/>
    <use xlink:href="#ArialMT-61" transform="translate(3698.597656 0)"/>
    <use xlink:href="#ArialMT-79" transform="translate(3754.212891 0)"/>
    <use xlink:href="#ArialMT-2c" transform="translate(3796.837891 0)"/>
    <use xlink:href="#ArialMT-20" transform="translate(3824.621094 0)"/>
    <use xlink:href="#ArialMT-6e" transform="translate(3852.404297 0)"/>
    <use xlink:href="#ArialMT-6f" transform="translate(3908.019531 0)"/>
    <use xlink:href="#ArialMT-74" transform="translate(3963.634766 0)"/>
    <use xlink:href="#ArialMT-5f" transform="translate(3991.417969 0)"/>
    <use xlink:href="#ArialMT-62" transform="translate(4047.033203 0)"/>
    <use xlink:href="#ArialMT-69" transform="translate(4102.648438 0)"/>
    <use xlink:href="#ArialMT-67" transform="translate(4124.865234 0)"/>
    <use xlink:href="#ArialMT-6e" transform="translate(4180.480469 0)"/>
    <use xlink:href="#ArialMT-61" transform="translate(4236.095703 0)"/>
    <use xlink:href="#ArialMT-79" transform="translate(4291.710938 0)"/>
   </g>
  </g>
 </g>
 <defs>
  <clipPath id="p9f30a2af99">
   <rect x="35.20625" y="84.0075" width="452.985" height="274.7325"/>
  </clipPath>
  <clipPath id="pd0e07d87d8">
   <rect x="540.60125" y="84.0075" width="452.985" height="274.7325"/>
  </clipPath>
 </defs>
</svg>
